<?xml version='1.0' encoding='utf-8'?>
<svg xmlns="http://www.w3.org/2000/svg" version="1.1" width="720px" height="1358px" viewBox="0 0 720 1358"> <g id="layer1"> <g style="fill:rgb(0,0,0); fill-opacity:1.0; stroke-linejoin: miter"> <path d="M-28.864647,648.23663L-29.150927,648.23944L-32.829617,648.52814Q-39.664597,652.8338,-39.90902,652.3943L-44.040535,656.96075L-46.157997,664.9482Q-46.149677,666.6765,-44.964573,665.5528L-44.34833,667.49036L-44.087906,674.3814L-48.48302,674.3088Q-51.783005,672.3597,-53.62771,672.1007Q-57.36395,671.97064,-58.9544,673.5873Q-64.13938,672.9825,-70.15337,673.63306L-105.14093,681.6435Q-111.78266,683.8663,-110.60255,690.56305Q-117.36037,691.71484,-123.71425,694.88367L-149.72173,710.13947Q-162.06483,713.67865,-164.07549,716.97107Q-165.27928,721.0513,-161.61215,720.5799Q-163.4105,721.8381,-163.40462,722.5968Q-161.26384,730.19086,-160.22896,729.2441Q-161.47014,731.55804,-160.73956,733.0551Q-160.09941,733.8498,-158.82619,733.7513Q-152.14705,726.91644,-146.37297,726.8207Q-144.93993,722.73114,-141.08562,718.11646L-128.68797,711.8983Q-128.303,712.8681,-105.904755,703.81036L-100.30731,704.4188Q-96.41401,702.3438,-89.245735,701.98914Q-81.00043,701.641,-80.477875,702.65924L-93.194565,736.0424Q-93.626595,738.6018,-89.930595,742.9528Q-95.631615,755.4189,-92.56865,773.27374L-91.66598,777.82166Q-86.12521,788.5485,-81.05579,795.06464Q-77.12116,801.1363,-69.11866,804.7767Q-65.805466,821.32,-56.43282,830.72955Q-58.383965,829.4781,-73.422935,830.7944Q-92.12655,837.466,-91.946434,836.8322Q-113.95209,837.33417,-119.32913,835.7609Q-123.103,835.9255,-123.272995,836.387L-127.11277,840.9969Q-127.273865,842.22296,-126.01279,843.5705Q-129.17403,844.7463,-126.76377,847.96356L-130.78017,863.0336Q-131.13202,863.9682,-132.2202,864.60455Q-129.85075,874.09735,-132.8098,873.1767L-131.09758,877.3599Q-132.25154,878.49384,-132.21892,879.4356Q-129.6734,884.9996,-128.93298,884.4931Q-126.92836,884.2259,-124.65867,882.02264L-115.16229,869.68744L-108.84259,862.9996Q-108.0622,862.36285,-107.420456,862.5379Q-108.095146,861.71796,-107.02415,861.12506L-88.625336,855.601Q-86.94452,856.856,-85.13702,857.2376L-55.484177,856.289Q-54.46734,854.0223,-53.802353,853.6745Q-41.814156,854.40985,-31.616127,846.1352Q-27.629831,840.2089,-28.121101,836.55817L-36.349148,804.61285L-33.636475,793.89606L-37.715816,789.6049Q-37.405914,786.5972,-43.55874,775.81647Q-43.144073,775.1933,-37.64828,774.96204L-37.242992,766.0839Q-16.661274,754.1041,-1.5967715,750.4679Q13.006857,756.06506,18.296537,756.2648Q26.070736,757.1531,36.665913,753.8672Q41.229595,753.57263,50.390602,754.5152L54.4346,756.2815Q54.02781,759.40155,59.410896,764.9837Q62.249023,766.98456,63.91166,765.73444Q65.59396,767.7884,66.980316,767.25977Q68.846405,766.9804,68.14721,764.8869L71.924736,765.35876Q72.432144,764.92847,72.57684,762.61566L80.26683,757.8467L91.038124,756.1043Q92.632286,757.1249,94.49778,756.8013Q94.994225,753.1203,98.29419,754.98975Q99.62154,750.74927,103.68474,751.1647L107.27042,744.82697Q108.531906,743.09076,104.67285,742.123Q94.03083,740.88135,88.19756,742.49854L87.41831,741.42834L80.02783,740.35754Q79.18692,737.98785,82.43757,738.23315Q82.64415,736.3593,82.19017,736.3388Q80.330574,737.4664,77.3114,736.28467Q77.681786,737.0728,73.8829,738.46185Q73.078094,735.8232,70.44981,736.1234Q65.890144,741.04913,63.851913,739.2363Q42.593754,736.98334,38.418133,732.2145L17.61563,728.64825L7.984166,728.68713Q7.2866564,729.6768,7.044713,729.58167L-5.1038213,727.08154Q-7.217263,726.79865,-12.500675,729.7775L-28.554787,728.47394L-19.755884,711.7664L-4.6041303,716.99005L15.121534,719.3905Q22.402994,719.9073,23.276468,713.5898Q23.048342,707.0674,19.172636,704.2096Q16.845922,702.5305,14.8770275,701.8384Q12.134275,702.65173,6.2706842,699.8392L-17.14064,686.10077L-12.916204,675.04913L-14.446352,668.0865Q-14.421724,666.44244,-13.103775,666.5987Q-13.3952675,662.873,-12.561113,662.6322L-13.777906,656.0751Q-14.875277,653.37897,-21.618849,649.38324Q-25.882244,648.24915,-28.864647,648.23663 Z"/> </g> <g style="fill:rgb(0,0,0); fill-opacity:1.0; stroke-linejoin: miter"> <path d="M189.92032,664.3976C189.70183,664.4187,189.05347,664.8275,188.71516,665.1517C188.57426,665.29254,188.4051,665.40533,188.34167,665.3842C188.28528,665.37006,188.27118,665.3138,188.32759,665.2574C188.41216,665.1728,188.3135,664.72174,188.17253,664.58075C188.14441,664.5527,187.5735,664.9262,186.89693,665.4195L185.67769,666.3146L185.4804,666.1172C185.28305,665.9199,185.2619,665.927,184.9307,666.2582C184.62758,666.5611,184.52896,666.60345,184.16245,666.57526C183.92989,666.55414,183.54935,666.4555,183.31679,666.3781C183.01376,666.25824,182.64722,666.24396,181.9777,666.3497C181.18138,666.46954,180.99815,666.54,180.57526,666.8783C180.20882,667.1603,179.70845,667.3928,178.4681,667.82965C175.90985,668.7248,174.4158,669.2886,173.85907,669.5635C173.28111,669.84534,171.92801,670.1836,169.13718,670.7474C166.71985,671.2337,165.88826,671.65656,163.8868,673.4185C163.23839,673.98224,162.9142,674.19354,162.08261,674.57416C160.78587,675.1804,158.10081,676.9352,156.38826,678.3094C155.09856,679.3453,154.3374,679.5145,153.16045,679.04236C152.72354,678.87317,152.04697,678.6477,151.65231,678.5349C150.77135,678.3023,150.39784,678.12616,148.89673,677.24524L147.7128,676.5548L143.93527,672.83374C138.98793,667.97076,138.02242,667.16046,136.68338,666.7233C136.10548,666.5401,135.5769,666.5473,134.47746,666.75854C133.45561,666.963,132.77904,667.31537,131.2709,668.4711C130.59433,668.9787,129.14961,669.9723,128.03612,670.6771L126.02758,671.95264L125.42857,671.67786C124.32913,671.1563,123.6385,671.2409,122.59545,672.016C122.15852,672.3402,121.86253,672.3685,120.53055,672.19226C118.91665,671.9738,117.53537,672.12885,116.83061,672.62225C116.52052,672.8337,116.4853,672.89703,116.46415,673.3692C116.45006,673.6652,116.555786,674.2502,116.71785,674.7364C117.14774,676.0262,117.676346,676.456,119.720116,677.2172C120.488304,677.50616,120.53057,677.50616,121.193016,677.2806C121.573586,677.1536,122.17965,677.04083,122.55318,677.0339C123.349525,677.0268,123.68784,677.23816,124.50535,678.28125C125.05504,678.9861,125.05504,678.9861,125.68934,679.19745C126.690056,679.5357,128.00089,679.6767,128.38144,679.49335C128.7691,679.3172,129.33994,678.64795,129.5443,678.14746C129.74167,677.68225,129.68524,677.32996,129.29062,676.5969C128.95232,675.9484,128.8677,675.3847,129.07916,675.1733C129.35405,674.89856,133.07506,673.94006,133.96307,673.9119C134.48459,673.89764,135.12587,674.34174,135.91524,675.2438C136.77498,676.2162,137.35294,677.20294,137.75464,678.3658C138.33253,680.01483,139.34035,681.4597,142.01839,684.4195L143.54065,686.11096L143.53362,686.59717C143.51247,687.33716,143.17421,689.1134,142.93456,689.6488C142.82182,689.90247,142.39897,690.50867,141.99727,690.99475C141.6026,691.48816,140.51729,692.8835,139.60815,694.10284C137.85333,696.43536,136.62706,697.8449,133.41345,701.2279L131.69388,703.03186L131.20757,703.9974C130.94682,704.52594,130.4394,705.6677,130.08702,706.52747L129.43869,708.0921L128.15599,709.5015C126.964966,710.7912,126.69015,711.1646,124.378586,714.5334C123.004295,716.5277,121.77807,718.3179,121.658264,718.5082C121.47505,718.8042,121.35523,718.8816,120.82666,719.05774C120.48838,719.17065,119.99506,719.2694,119.72023,719.29065C118.70538,719.34674,118.352974,719.6005,117.23949,721.10864C116.0837,722.6733,115.801834,722.9411,115.07594,723.1454C113.03918,723.7162,112.27104,724.0897,112.059616,724.59705C111.79883,725.22437,112.41901,726.5353,113.32108,727.2258C114.23025,727.9377,116.05552,728.25494,116.73916,727.8249C117.29589,727.4797,121.10152,723.6599,121.79922,722.73676C122.13752,722.29987,122.84225,721.5246,123.363754,721.017C126.746544,717.74695,130.6297,714.0895,131.53883,713.33527C132.8919,712.1935,133.39935,711.5594,134.78065,709.2055C136.23949,706.732,136.14082,706.81647,141.67311,702.7923C144.12564,701.0165,146.78255,699.1205,147.593,698.59204C148.98839,697.6616,149.06587,697.59827,149.2421,697.21075C149.63675,696.365,149.67903,696.3086,150.23578,695.9632C151.84967,694.9555,154.3797,693.89124,159.35526,692.1436C160.8705,691.6149,161.18764,691.5515,164.2674,691.1357C166.08566,690.89606,167.76295,690.64233,168.0096,690.57886C168.72139,690.38855,170.33534,689.4091,172.90767,687.5979C173.8097,686.9635,174.06342,686.724,175.55753,685.1594L177.19958,683.41876L179.24341,682.0798C180.36392,681.3398,181.69588,680.3882,182.2103,679.9724C183.57054,678.8519,184.24004,678.422,185.05757,678.15424C185.45926,678.0203,185.93141,677.83,186.11469,677.7454C186.39656,677.60443,186.60097,677.6257,187.50305,677.86536C188.68703,678.18945,190.08246,678.30225,190.28683,678.0979C190.51233,677.87244,190.1318,677.61865,188.94783,677.1817C186.84766,676.43463,186.85466,676.37115,189.16628,675.6101C190.15288,675.2859,191.03387,674.95465,191.11842,674.87006C191.28052,674.70795,191.17482,674.2641,190.94226,674.15826C190.8718,674.13007,190.16702,674.2429,189.37769,674.42615C188.58128,674.60223,187.93294,674.7292,187.93294,674.701C187.9259,674.6799,188.48264,674.24994,189.15918,673.74255C190.49823,672.7418,190.6533,672.54456,190.47002,672.0652C190.34319,671.7268,190.20224,671.7268,189.60316,672.0864C189.0394,672.42456,187.50305,673.5522,187.18587,673.86945C187.01677,674.03864,186.90402,674.0667,186.65732,673.9892C186.4811,673.92584,186.34724,673.8482,186.36836,673.7989C186.38248,673.75665,186.58682,673.4113,186.83351,673.0377C187.07314,672.6571,187.31273,672.2907,187.34798,672.2132C187.40434,672.11444,187.53825,672.12164,187.7779,672.2343C188.19368,672.4246,188.6165,672.3118,188.6165,672.00165C188.61653,671.88885,188.39099,671.39557,188.10207,670.90936C187.64395,670.12726,187.57352,669.9439,187.53122,669.2674C187.47482,668.5064,187.47482,668.5064,187.79198,668.3864C188.54602,668.0833,188.7786,668.0201,189.69478,667.8649C190.80832,667.68176,191.67516,667.40674,191.91475,667.1671C192.09799,666.984,192.13324,666.7091,191.99937,666.5753C191.95003,666.5259,191.05498,666.58936,190.01901,666.70917C188.0809,666.9417,187.85541,666.8853,188.78566,666.4202C189.37062,666.1313,190.30794,665.208,190.30794,664.9402C190.30086,664.65125,190.11063,664.37646,189.92032,664.3976 Z M186.62207,671.3041C186.58682,671.4098,186.26265,671.9735,185.89622,672.55145L185.21964,673.6087L184.66289,673.7002C183.6269,673.8624,183.5635,673.8412,182.2597,672.59375C181.08975,671.4803,180.84311,671.33234,180.69508,671.66345C180.63168,671.7975,181.25186,672.91095,181.88614,673.81305C182.19624,674.25006,182.28786,674.5107,182.42877,675.2858C182.56975,676.13153,182.56268,676.2514,182.3724,676.3853C182.25261,676.4628,181.76633,676.8081,181.28711,677.1465C180.54715,677.675,180.32864,677.7807,179.7296,677.9006L179.03192,678.0345L179.2363,677.47784C179.34906,677.13947,179.42656,676.51215,179.43362,675.899C179.43362,674.60236,179.31383,674.3558,178.23552,673.5028C177.36868,672.81934,177.06564,672.6854,176.17058,672.608L175.57861,672.5516L177.53075,671.6564C178.60196,671.1631,180.32158,670.3457,181.35754,669.8453C183.29567,668.9081,183.76784,668.7178,183.99336,668.77405C184.28935,668.8445,184.7122,669.18286,185.67065,670.1272C186.56564,671.00806,186.6714,671.1421,186.62207,671.3041 Z M169.6164,675.9484C169.2147,676.04,169.2147,676.02594,169.73624,675.26483C170.23662,674.539,170.3353,674.46844,170.92728,674.38403L171.4629,674.29944L170.71584,675.0887C170.0745,675.75824,169.92651,675.878,169.6164,675.9484 Z M173.6053,681.86835L172.77368,682.7985L172.16762,682.6435C171.82935,682.5589,171.52634,682.46735,171.50519,682.4462C171.40651,682.3475,171.78708,681.64276,172.04076,681.4594C172.18877,681.3538,172.82304,681.1141,173.45027,680.93805C174.30305,680.69147,174.57085,680.64923,174.51448,680.77594C174.47221,680.8747,174.06343,681.368,173.6053,681.86835 Z"/> </g> <g style="fill:rgb(0,0,0); fill-opacity:1.0; stroke-linejoin: miter"> <path d="M200.93567,665.5039C199.99832,664.9191,198.36331,664.73584,197.06654,665.0602C195.51607,665.4547,194.07835,666.836,193.54984,668.43585C193.33842,669.0983,193.28911,670.37384,193.45119,671.128C193.6767,672.14276,194.00793,672.69946,194.92412,673.5593C195.68523,674.26404,195.79095,674.3275,196.51686,674.574C198.49019,675.25055,200.35071,674.81366,201.80952,673.355C203.4234,671.74097,203.79694,669.4788,202.78212,667.46313C202.50726,666.9204,201.49945,665.85645,200.93567,665.5039 Z"/> </g> <g style="fill:rgb(0,0,0); fill-opacity:1.0; stroke-linejoin: miter"> </g> <g style="fill:rgb(0,0,0); fill-opacity:1.0; stroke-linejoin: miter"> <path d="M70.28825,645.2522C69.759476,645.2522,69.25235,645.4623,68.87844,645.8362C68.50453,646.2101,68.29448,646.71716,68.29448,647.246L68.29448,732.0295L68.29448,732.0295Q70.28788,732.0295,72.28127,732.0295L72.282,732.0295L72.282,649.23975L72.282,649.23975L233.56432,649.2407L233.56432,649.2407L233.56432,732.02905L233.56432,732.02905Q235.55688,732.029,237.54945,732.029L237.55183,732.029L237.55183,647.24695C237.55183,646.1458,236.65921,645.2532,235.55809,645.2532L70.28825,645.2522 Z"/> </g> </g> </svg>