<?xml version="1.0" encoding="UTF-8" standalone="no"?>
<!DOCTYPE svg PUBLIC "-//W3C//DTD SVG 20010904//EN"
              "http://www.w3.org/TR/2001/REC-SVG-20010904/DTD/svg10.dtd">

<svg xmlns="http://www.w3.org/2000/svg"
     width="2.08333in" height="2.11458in"
     viewBox="0 0 200 203">
  <path id="Selection #1"
        fill="none" stroke="black" stroke-width="1"
        d="M 91.00,6.21
           C 80.46,8.02 73.05,9.38 63.00,13.45
             37.90,23.62 17.83,45.48 9.08,71.00
             -8.33,121.76 18.90,177.11 70.00,194.00
             77.97,196.63 88.62,198.90 97.00,199.00
             113.38,199.19 129.20,196.64 144.00,189.24
             195.74,163.39 214.29,98.59 182.66,50.00
             176.98,41.28 171.16,34.51 163.00,28.00
             154.92,21.56 145.80,15.78 136.00,12.34
             125.81,8.77 114.86,6.05 104.00,6.21
             104.00,6.21 91.00,6.21 91.00,6.21 Z" />
</svg>
