<?xml version="1.0" standalone="no"?>
<!DOCTYPE svg PUBLIC "-//W3C//DTD SVG 20010904//EN"
 "http://www.w3.org/TR/2001/REC-SVG-20010904/DTD/svg10.dtd">
<svg version="1.0" xmlns="http://www.w3.org/2000/svg"
 width="200.000000pt" height="203.000000pt" viewBox="0 0 200.000000 203.000000"
 preserveAspectRatio="xMidYMid meet">
<metadata>
Created by potrace 1.16, written by Peter Selinger 2001-2019
</metadata>
<g transform="translate(0.000000,203.000000) scale(0.100000,-0.100000)"
fill="#000000" stroke="none">
<path d="M841 1959 c-78 -14 -228 -65 -291 -101 -344 -192 -538 -558 -499
-943 29 -283 168 -519 411 -698 59 -43 215 -115 303 -139 116 -31 365 -31 478
0 275 76 500 259 624 507 107 214 128 480 56 710 -101 319 -356 562 -683 650
-76 20 -316 29 -399 14z m306 -34 c286 -46 530 -217 667 -467 27 -48 33 -67
24 -71 -113 -47 -212 -86 -214 -85 -1 2 -25 38 -53 80 -70 104 -155 180 -266
233 -201 99 -400 98 -600 0 -111 -54 -197 -130 -266 -233 -28 -42 -52 -78 -53
-80 -2 -1 -101 38 -214 85 -9 4 -3 23 24 71 135 247 386 423 664 467 114 18
178 18 287 0z m-270 -659 c16 -13 42 -23 62 -24 37 -1 71 -26 71 -53 0 -10 11
-30 24 -46 13 -15 26 -38 30 -50 7 -22 4 -23 -41 -24 -39 -1 -43 -3 -23 -9 14
-4 19 -8 13 -9 -9 -1 -10 -8 -4 -25 7 -17 5 -28 -7 -42 -16 -17 -16 -17 0 -5
19 14 65 8 107 -14 22 -11 29 -10 52 8 26 18 27 21 13 42 -13 19 -12 24 5 39
14 13 28 15 60 10 34 -6 48 -3 71 15 51 37 44 49 109 -195 44 -164 48 -191 29
-217 -7 -9 -56 -28 -108 -42 -52 -14 -103 -28 -112 -31 -14 -4 -17 -1 -12 13
5 17 5 17 -6 0 -17 -26 -107 -68 -138 -64 -20 3 -29 11 -35 34 -8 26 -16 32
-49 37 -21 4 -47 12 -58 18 -15 10 -22 9 -38 -5 -26 -24 -47 -21 -72 10 -12
16 -18 21 -14 13 4 -8 13 -22 21 -31 31 -36 -20 -30 -231 29 -16 4 -38 19 -48
33 -18 24 -17 27 33 219 29 107 55 199 59 204 5 4 22 -2 38 -14 24 -18 40 -22
74 -18 34 4 50 1 67 -13 13 -11 35 -19 48 -19 21 0 23 -2 13 -15 -7 -8 -15
-13 -19 -11 -3 2 -15 -8 -25 -23 l-20 -26 22 19 c12 11 22 16 22 11 0 -4 8 2
18 14 9 11 34 27 55 34 l38 13 -60 1 c-37 1 -70 8 -86 19 -18 12 -36 15 -63
10 -32 -5 -45 0 -92 32 -47 33 -55 43 -58 73 -5 54 23 82 89 90 112 13 146 10
176 -15z m491 -21 c40 -47 27 -87 -44 -136 -39 -26 -52 -31 -86 -26 -31 4 -47
1 -68 -15 -39 -29 -82 -14 -91 31 -4 18 -16 42 -27 54 -11 12 -22 36 -24 52
-3 28 0 30 31 33 19 2 46 13 60 24 23 18 36 19 126 14 92 -5 102 -7 123 -31z
m-945 -581 c89 -151 252 -271 427 -315 70 -17 238 -17 310 0 120 29 265 114
344 201 21 23 55 69 77 103 22 33 41 63 43 65 3 2 54 -17 115 -43 l111 -47
-22 -41 c-69 -137 -192 -272 -328 -359 -250 -160 -582 -187 -859 -69 -187 80
-368 248 -459 428 l-21 41 107 46 c59 25 111 44 117 42 5 -1 22 -25 38 -52z"/>
<path d="M950 945 c-7 -8 -34 -18 -61 -21 -55 -7 -65 -18 -74 -80 -6 -35 -3
-42 29 -73 l36 -35 38 37 c21 20 44 37 51 37 10 0 11 3 2 14 -18 21 -26 103
-11 121 7 8 10 15 7 15 -2 0 -10 -7 -17 -15z"/>
<path d="M1122 826 c-22 -20 -45 -36 -52 -36 -9 0 -9 -4 -3 -12 6 -7 16 -35
22 -63 l12 -50 54 3 c52 4 54 5 69 43 28 69 22 87 -46 138 -14 10 -22 7 -56
-23z"/>
</g>
</svg>
