<?xml version="1.0" encoding="utf-8"?>
<!-- Generator: Adobe Illustrator 22.1.0, SVG Export Plug-In . SVG Version: 6.00 Build 0)  -->
<svg version="1.1" xmlns="http://www.w3.org/2000/svg" xmlns:xlink="http://www.w3.org/1999/xlink" x="0px" y="0px"
	 viewBox="0 0 2272 1872" style="enable-background:new 0 0 2272 1872;" xml:space="preserve">
<style type="text/css">
	.st0{fill:#D3D9ED;}
	.st1{clip-path:url(#SVGID_2_);fill:url(#SVGID_3_);}
	.st2{fill:#976A44;}
	.st3{fill:#825533;}
	.st4{fill:#407D00;}
	.st5{fill:#386800;}
	.st6{fill:#508E09;}
	.st7{fill:#63A800;}
	.st8{fill:#FFFFFF;}
	.st9{fill:#6C8393;}
	.st10{fill:#9AAAB7;}
	.st11{enable-background:new    ;}
	.st12{fill:#1B2531;}
	.st13{fill:#B8C8D8;}
	.st14{fill:#3A464F;}
	.st15{fill:#5D717E;}
	.st16{fill:#546572;}
</style>
<g id="Background">
	<rect class="st0" width="2272" height="1872"/>
	<g>
		<defs>
			<rect id="SVGID_1_" width="2272" height="1872"/>
		</defs>
		<clipPath id="SVGID_2_">
			<use xlink:href="#SVGID_1_"  style="overflow:visible;"/>
		</clipPath>
		
			<radialGradient id="SVGID_3_" cx="1136" cy="936" r="1395.1891" gradientTransform="matrix(0.8311 0.5562 -0.4602 0.6877 622.691 -339.5073)" gradientUnits="userSpaceOnUse">
			<stop  offset="0" style="stop-color:#FFFFFF"/>
			<stop  offset="1" style="stop-color:#D3D9ED"/>
		</radialGradient>
		<path class="st1" d="M4189.3,810.7l-1-0.6l1-0.6L1355-826.8l-1,0.6l-1-0.6l-3270.3,1888.1l1,0.6l-1,0.6L917,2698.8l1-0.6l1,0.6
			L4189.3,810.7z M1352,810.1l-107,61.8l-107-61.8l107-61.8L1352,810.1z M1247,747.2l107-61.8l107,61.8L1354,809L1247,747.2z
			 M1243,873.1l-107,61.8l-107-61.8l107-61.8L1243,873.1z M1134,936l-107,61.8L920,936l107-61.8L1134,936z M1025,998.9l-107,61.8
			l-107-61.8l107-61.8L1025,998.9z M916,1061.9l-107,61.8l-107-61.8l107-61.8L916,1061.9z M918,1063l107,61.8l-107,61.8l-107-61.8
			L918,1063z M920,1061.9l107-61.8l107,61.8l-107,61.8L920,1061.9z M1029,998.9l107-61.8l107,61.8l-107,61.8L1029,998.9z M1138,936
			l107-61.8l107,61.8l-107,61.8L1138,936z M1247,873.1l107-61.8l107,61.8l-107,61.8L1247,873.1z M1356,810.1l107-61.8l107,61.8
			l-107,61.8L1356,810.1z M1465,747.2l107-61.8l107,61.8L1572,809L1465,747.2z M1463,746l-107-61.8l107-61.8l107,61.8L1463,746z
			 M1354,683.1l-107-61.8l107-61.8l107,61.8L1354,683.1z M1352,684.3L1245,746l-107-61.8l107-61.8L1352,684.3z M1243,747.2L1136,809
			l-107-61.8l107-61.8L1243,747.2z M1134,810.1l-107,61.8l-107-61.8l107-61.8L1134,810.1z M1025,873.1l-107,61.8l-107-61.8l107-61.8
			L1025,873.1z M916,936l-107,61.8L702,936l107-61.8L916,936z M807,998.9l-107,61.8l-107-61.8l107-61.8L807,998.9z M698,1061.9
			l-107,61.8l-107-61.8l107-61.8L698,1061.9z M700,1063l107,61.8l-107,61.8l-107-61.8L700,1063z M809,1126l107,61.8l-107,61.8
			l-107-61.8L809,1126z M918,1188.9l107,61.8l-107,61.8l-107-61.8L918,1188.9z M920,1187.7l107-61.8l107,61.8l-107,61.8L920,1187.7z
			 M1029,1124.8l107-61.8l107,61.8l-107,61.8L1029,1124.8z M1138,1061.9l107-61.8l107,61.8l-107,61.8L1138,1061.9z M1247,998.9
			l107-61.8l107,61.8l-107,61.8L1247,998.9z M1356,936l107-61.8l107,61.8l-107,61.8L1356,936z M1465,873.1l107-61.8l107,61.8
			l-107,61.8L1465,873.1z M1574,810.1l107-61.8l107,61.8l-107,61.8L1574,810.1z M1683,747.2l107-61.8l107,61.8l-107,61.8L1683,747.2
			z M1681,746l-107-61.8l107-61.8l107,61.8L1681,746z M1572,683.1l-107-61.8l107-61.8l107,61.8L1572,683.1z M1463,620.2l-107-61.8
			l107-61.8l107,61.8L1463,620.2z M1354,557.2l-107-61.8l107-61.8l107,61.8L1354,557.2z M1352,558.4l-107,61.8l-107-61.8l107-61.8
			L1352,558.4z M1243,621.3l-107,61.8l-107-61.8l107-61.8L1243,621.3z M1134,684.3L1027,746l-107-61.8l107-61.8L1134,684.3z
			 M1025,747.2L918,809l-107-61.8l107-61.8L1025,747.2z M916,810.1l-107,61.8l-107-61.8l107-61.8L916,810.1z M807,873.1l-107,61.8
			l-107-61.8l107-61.8L807,873.1z M698,936l-107,61.8l-107-61.8l107-61.8L698,936z M589,998.9l-107,61.8l-107-61.8l107-61.8
			L589,998.9z M479.9,1061.9l-107,61.8l-107-61.8l107-61.8L479.9,1061.9z M481.9,1063l107,61.8l-107,61.8l-107-61.8L481.9,1063z
			 M591,1126l107,61.8l-107,61.8l-107-61.8L591,1126z M700,1188.9l107,61.8l-107,61.8l-107-61.8L700,1188.9z M809,1251.8l107,61.8
			l-107,61.8l-107-61.8L809,1251.8z M918,1314.8l107,61.8l-107,61.8l-107-61.8L918,1314.8z M920,1313.6l107-61.8l107,61.8l-107,61.8
			L920,1313.6z M1029,1250.7l107-61.8l107,61.8l-107,61.8L1029,1250.7z M1138,1187.7l107-61.8l107,61.8l-107,61.8L1138,1187.7z
			 M1247,1124.8l107-61.8l107,61.8l-107,61.8L1247,1124.8z M1356,1061.9l107-61.8l107,61.8l-107,61.8L1356,1061.9z M1465,998.9
			l107-61.8l107,61.8l-107,61.8L1465,998.9z M1574,936l107-61.8l107,61.8l-107,61.8L1574,936z M1683,873.1l107-61.8l107,61.8
			l-107,61.8L1683,873.1z M1792.1,810.1l107-61.8l107,61.8l-107,61.8L1792.1,810.1z M1901.1,747.2l107-61.8l107,61.8l-107,61.8
			L1901.1,747.2z M1899.1,746l-107-61.8l107-61.8l107,61.8L1899.1,746z M1790.1,683.1l-107-61.8l107-61.8l107,61.8L1790.1,683.1z
			 M1681,620.2l-107-61.8l107-61.8l107,61.8L1681,620.2z M1572,557.2l-107-61.8l107-61.8l107,61.8L1572,557.2z M1463,494.3
			l-107-61.8l107-61.8l107,61.8L1463,494.3z M1354,431.4l-107-61.8l107-61.8l107,61.8L1354,431.4z M1352,432.5l-107,61.8l-107-61.8
			l107-61.8L1352,432.5z M1243,495.4l-107,61.8l-107-61.8l107-61.8L1243,495.4z M1134,558.4l-107,61.8l-107-61.8l107-61.8
			L1134,558.4z M1025,621.3l-107,61.8l-107-61.8l107-61.8L1025,621.3z M916,684.3L809,746l-107-61.8l107-61.8L916,684.3z M807,747.2
			L700,809l-107-61.8l107-61.8L807,747.2z M698,810.1l-107,61.8l-107-61.8l107-61.8L698,810.1z M589,873.1l-107,61.8l-107-61.8
			l107-61.8L589,873.1z M479.9,936l-107,61.8l-107-61.8l107-61.8L479.9,936z M370.9,998.9l-107,61.8l-107-61.8l107-61.8L370.9,998.9
			z M261.9,1061.9l-107,61.8l-107-61.8l107-61.8L261.9,1061.9z M263.9,1063l107,61.8l-107,61.8l-107-61.8L263.9,1063z M372.9,1126
			l107,61.8l-107,61.8l-107-61.8L372.9,1126z M481.9,1188.9l107,61.8l-107,61.8l-107-61.8L481.9,1188.9z M591,1251.8l107,61.8
			l-107,61.8l-107-61.8L591,1251.8z M700,1314.8l107,61.8l-107,61.8l-107-61.8L700,1314.8z M809,1377.7l107,61.8l-107,61.8
			l-107-61.8L809,1377.7z M918,1440.6l107,61.8l-107,61.8l-107-61.8L918,1440.6z M920,1439.5l107-61.8l107,61.8l-107,61.8
			L920,1439.5z M1029,1376.6l107-61.8l107,61.8l-107,61.8L1029,1376.6z M1138,1313.6l107-61.8l107,61.8l-107,61.8L1138,1313.6z
			 M1247,1250.7l107-61.8l107,61.8l-107,61.8L1247,1250.7z M1356,1187.7l107-61.8l107,61.8l-107,61.8L1356,1187.7z M1465,1124.8
			l107-61.8l107,61.8l-107,61.8L1465,1124.8z M1574,1061.9l107-61.8l107,61.8l-107,61.8L1574,1061.9z M1683,998.9l107-61.8l107,61.8
			l-107,61.8L1683,998.9z M1792.1,936l107-61.8l107,61.8l-107,61.8L1792.1,936z M1901.1,873.1l107-61.8l107,61.8l-107,61.8
			L1901.1,873.1z M2010.1,810.1l107-61.8l107,61.8l-107,61.8L2010.1,810.1z M2119.1,747.2l107-61.8l107,61.8l-107,61.8L2119.1,747.2
			z M2117.1,746l-107-61.8l107-61.8l107,61.8L2117.1,746z M2008.1,683.1l-107-61.8l107-61.8l107,61.8L2008.1,683.1z M1899.1,620.2
			l-107-61.8l107-61.8l107,61.8L1899.1,620.2z M1790.1,557.2l-107-61.8l107-61.8l107,61.8L1790.1,557.2z M1681,494.3l-107-61.8
			l107-61.8l107,61.8L1681,494.3z M1572,431.4l-107-61.8l107-61.8l107,61.8L1572,431.4z M1463,368.4l-107-61.8l107-61.8l107,61.8
			L1463,368.4z M1354,305.5l-107-61.8l107-61.8l107,61.8L1354,305.5z M1352,306.6l-107,61.8l-107-61.8l107-61.8L1352,306.6z
			 M1243,369.6l-107,61.8l-107-61.8l107-61.8L1243,369.6z M1134,432.5l-107,61.8l-107-61.8l107-61.8L1134,432.5z M1025,495.4
			l-107,61.8l-107-61.8l107-61.8L1025,495.4z M916,558.4l-107,61.8l-107-61.8l107-61.8L916,558.4z M807,621.3l-107,61.8l-107-61.8
			l107-61.8L807,621.3z M698,684.3l-107,61.8l-107-61.8l107-61.8L698,684.3z M588.9,747.2l-107,61.8l-107-61.8l107-61.8L588.9,747.2
			z M479.9,810.1l-107,61.8l-107-61.8l107-61.8L479.9,810.1z M370.9,873.1l-107,61.8l-107-61.8l107-61.8L370.9,873.1z M261.9,936
			l-107,61.8L47.9,936l107-61.8L261.9,936z M152.9,998.9l-107,61.8l-107-61.8l107-61.8L152.9,998.9z M43.9,1061.9l-107,61.8
			l-107-61.8l107-61.8L43.9,1061.9z M45.9,1063l107,61.8l-107,61.8l-107-61.8L45.9,1063z M154.9,1126l107,61.8l-107,61.8l-107-61.8
			L154.9,1126z M263.9,1188.9l107,61.8l-107,61.8l-107-61.8L263.9,1188.9z M372.9,1251.8l107,61.8l-107,61.8l-107-61.8L372.9,1251.8
			z M481.9,1314.8l107,61.8l-107,61.8l-107-61.8L481.9,1314.8z M591,1377.7l107,61.8l-107,61.8l-107-61.8L591,1377.7z M700,1440.6
			l107,61.8l-107,61.8l-107-61.8L700,1440.6z M809,1503.6l107,61.8l-107,61.8l-107-61.8L809,1503.6z M918,1566.5l107,61.8l-107,61.8
			l-107-61.8L918,1566.5z M920,1565.4l107-61.8l107,61.8l-107,61.8L920,1565.4z M1029,1502.4l107-61.8l107,61.8l-107,61.8
			L1029,1502.4z M1138,1439.5l107-61.8l107,61.8l-107,61.8L1138,1439.5z M1247,1376.6l107-61.8l107,61.8l-107,61.8L1247,1376.6z
			 M1356,1313.6l107-61.8l107,61.8l-107,61.8L1356,1313.6z M1465,1250.7l107-61.8l107,61.8l-107,61.8L1465,1250.7z M1574,1187.7
			l107-61.8l107,61.8l-107,61.8L1574,1187.7z M1683.1,1124.8l107-61.8l107,61.8l-107,61.8L1683.1,1124.8z M1792.1,1061.9l107-61.8
			l107,61.8l-107,61.8L1792.1,1061.9z M1901.1,998.9l107-61.8l107,61.8l-107,61.8L1901.1,998.9z M2010.1,936l107-61.8l107,61.8
			l-107,61.8L2010.1,936z M2119.1,873.1l107-61.8l107,61.8l-107,61.8L2119.1,873.1z M2228.1,810.1l107-61.8l107,61.8l-107,61.8
			L2228.1,810.1z M2337.1,747.2l107-61.8l107,61.8l-107,61.8L2337.1,747.2z M2335.1,746l-107-61.8l107-61.8l107,61.8L2335.1,746z
			 M2226.1,683.1l-107-61.8l107-61.8l107,61.8L2226.1,683.1z M2117.1,620.2l-107-61.8l107-61.8l107,61.8L2117.1,620.2z
			 M2008.1,557.2l-107-61.8l107-61.8l107,61.8L2008.1,557.2z M1899.1,494.3l-107-61.8l107-61.8l107,61.8L1899.1,494.3z
			 M1790.1,431.4l-107-61.8l107-61.8l107,61.8L1790.1,431.4z M1681,368.4l-107-61.8l107-61.8l107,61.8L1681,368.4z M1572,305.5
			l-107-61.8l107-61.8l107,61.8L1572,305.5z M1463,242.5l-107-61.8l107-61.8l107,61.8L1463,242.5z M1354,179.6l-107-61.8L1354,56
			l107,61.8L1354,179.6z M1352,180.8l-107,61.8l-107-61.8l107-61.8L1352,180.8z M1243,243.7l-107,61.8l-107-61.8l107-61.8
			L1243,243.7z M1134,306.6l-107,61.8l-107-61.8l107-61.8L1134,306.6z M1025,369.6l-107,61.8l-107-61.8l107-61.8L1025,369.6z
			 M916,432.5l-107,61.8l-107-61.8l107-61.8L916,432.5z M807,495.4l-107,61.8l-107-61.8l107-61.8L807,495.4z M698,558.4l-107,61.8
			l-107-61.8l107-61.8L698,558.4z M588.9,621.3l-107,61.8l-107-61.8l107-61.8L588.9,621.3z M479.9,684.3l-107,61.8l-107-61.8
			l107-61.8L479.9,684.3z M370.9,747.2l-107,61.8l-107-61.8l107-61.8L370.9,747.2z M261.9,810.1l-107,61.8l-107-61.8l107-61.8
			L261.9,810.1z M152.9,873.1l-107,61.8l-107-61.8l107-61.8L152.9,873.1z M43.9,936l-107,61.8l-107-61.8l107-61.8L43.9,936z
			 M-65.1,998.9l-107,61.8l-107-61.8l107-61.8L-65.1,998.9z M-174.1,1061.9l-107,61.8l-107-61.8l107-61.8L-174.1,1061.9z
			 M-172.1,1063l107,61.8l-107,61.8l-107-61.8L-172.1,1063z M-63.1,1126l107,61.8l-107,61.8l-107-61.8L-63.1,1126z M45.9,1188.9
			l107,61.8l-107,61.8l-107-61.8L45.9,1188.9z M154.9,1251.8l107,61.8l-107,61.8l-107-61.8L154.9,1251.8z M263.9,1314.8l107,61.8
			l-107,61.8l-107-61.8L263.9,1314.8z M372.9,1377.7l107,61.8l-107,61.8l-107-61.8L372.9,1377.7z M481.9,1440.6l107,61.8l-107,61.8
			l-107-61.8L481.9,1440.6z M591,1503.6l107,61.8l-107,61.8l-107-61.8L591,1503.6z M700,1566.5l107,61.8l-107,61.8l-107-61.8
			L700,1566.5z M809,1629.5l107,61.8L809,1753l-107-61.8L809,1629.5z M918,1692.4l107,61.8L918,1816l-107-61.8L918,1692.4z
			 M920,1691.2l107-61.8l107,61.8l-107,61.8L920,1691.2z M1029,1628.3l107-61.8l107,61.8l-107,61.8L1029,1628.3z M1138,1565.4
			l107-61.8l107,61.8l-107,61.8L1138,1565.4z M1247,1502.4l107-61.8l107,61.8l-107,61.8L1247,1502.4z M1356,1439.5l107-61.8
			l107,61.8l-107,61.8L1356,1439.5z M1465,1376.6l107-61.8l107,61.8l-107,61.8L1465,1376.6z M1574,1313.6l107-61.8l107,61.8
			l-107,61.8L1574,1313.6z M1683.1,1250.7l107-61.8l107,61.8l-107,61.8L1683.1,1250.7z M1792.1,1187.7l107-61.8l107,61.8l-107,61.8
			L1792.1,1187.7z M1901.1,1124.8l107-61.8l107,61.8l-107,61.8L1901.1,1124.8z M2010.1,1061.9l107-61.8l107,61.8l-107,61.8
			L2010.1,1061.9z M2119.1,998.9l107-61.8l107,61.8l-107,61.8L2119.1,998.9z M2228.1,936l107-61.8l107,61.8l-107,61.8L2228.1,936z
			 M2337.1,873.1l107-61.8l107,61.8l-107,61.8L2337.1,873.1z M2446.1,810.1l107-61.8l107,61.8l-107,61.8L2446.1,810.1z
			 M2555.1,747.2l107-61.8l107,61.8l-107,61.8L2555.1,747.2z M2553.1,746l-107-61.8l107-61.8l107,61.8L2553.1,746z M2444.1,683.1
			l-107-61.8l107-61.8l107,61.8L2444.1,683.1z M2335.1,620.2l-107-61.8l107-61.8l107,61.8L2335.1,620.2z M2226.1,557.2l-107-61.8
			l107-61.8l107,61.8L2226.1,557.2z M2117.1,494.3l-107-61.8l107-61.8l107,61.8L2117.1,494.3z M2008.1,431.4l-107-61.8l107-61.8
			l107,61.8L2008.1,431.4z M1899.1,368.4l-107-61.8l107-61.8l107,61.8L1899.1,368.4z M1790.1,305.5l-107-61.8l107-61.8l107,61.8
			L1790.1,305.5z M1681,242.5l-107-61.8l107-61.8l107,61.8L1681,242.5z M1572,179.6l-107-61.8L1572,56l107,61.8L1572,179.6z
			 M1463,116.7l-107-61.8l107-61.8l107,61.8L1463,116.7z M1354,53.7L1247-8.1l107-61.8l107,61.8L1354,53.7z M1352,54.9l-107,61.8
			l-107-61.8l107-61.8L1352,54.9z M1243,117.8l-107,61.8l-107-61.8L1136,56L1243,117.8z M1134,180.8l-107,61.8l-107-61.8l107-61.8
			L1134,180.8z M1025,243.7l-107,61.8l-107-61.8l107-61.8L1025,243.7z M916,306.6l-107,61.8l-107-61.8l107-61.8L916,306.6z
			 M807,369.6l-107,61.8l-107-61.8l107-61.8L807,369.6z M698,432.5l-107,61.8l-107-61.8l107-61.8L698,432.5z M588.9,495.4l-107,61.8
			l-107-61.8l107-61.8L588.9,495.4z M479.9,558.4l-107,61.8l-107-61.8l107-61.8L479.9,558.4z M370.9,621.3l-107,61.8l-107-61.8
			l107-61.8L370.9,621.3z M261.9,684.3l-107,61.8l-107-61.8l107-61.8L261.9,684.3z M152.9,747.2L45.9,809l-107-61.8l107-61.8
			L152.9,747.2z M43.9,810.1l-107,61.8l-107-61.8l107-61.8L43.9,810.1z M-65.1,873.1l-107,61.8l-107-61.8l107-61.8L-65.1,873.1z
			 M-174.1,936l-107,61.8l-107-61.8l107-61.8L-174.1,936z M-283.1,998.9l-107,61.8l-107-61.8l107-61.8L-283.1,998.9z M-392.1,1061.9
			l-107,61.8l-107-61.8l107-61.8L-392.1,1061.9z M-390.1,1063l107,61.8l-107,61.8l-107-61.8L-390.1,1063z M-281.1,1126l107,61.8
			l-107,61.8l-107-61.8L-281.1,1126z M-172.1,1188.9l107,61.8l-107,61.8l-107-61.8L-172.1,1188.9z M-63.1,1251.8l107,61.8l-107,61.8
			l-107-61.8L-63.1,1251.8z M45.9,1314.8l107,61.8l-107,61.8l-107-61.8L45.9,1314.8z M154.9,1377.7l107,61.8l-107,61.8l-107-61.8
			L154.9,1377.7z M263.9,1440.6l107,61.8l-107,61.8l-107-61.8L263.9,1440.6z M372.9,1503.6l107,61.8l-107,61.8l-107-61.8
			L372.9,1503.6z M481.9,1566.5l107,61.8l-107,61.8l-107-61.8L481.9,1566.5z M591,1629.5l107,61.8L591,1753l-107-61.8L591,1629.5z
			 M700,1692.4l107,61.8L700,1816l-107-61.8L700,1692.4z M809,1755.3l107,61.8l-107,61.8l-107-61.8L809,1755.3z M918,1818.3
			l107,61.8l-107,61.8l-107-61.8L918,1818.3z M920,1817.1l107-61.8l107,61.8l-107,61.8L920,1817.1z M1029,1754.2l107-61.8l107,61.8
			l-107,61.8L1029,1754.2z M1138,1691.2l107-61.8l107,61.8l-107,61.8L1138,1691.2z M1247,1628.3l107-61.8l107,61.8l-107,61.8
			L1247,1628.3z M1356,1565.4l107-61.8l107,61.8l-107,61.8L1356,1565.4z M1465,1502.4l107-61.8l107,61.8l-107,61.8L1465,1502.4z
			 M1574,1439.5l107-61.8l107,61.8l-107,61.8L1574,1439.5z M1683.1,1376.6l107-61.8l107,61.8l-107,61.8L1683.1,1376.6z
			 M1792.1,1313.6l107-61.8l107,61.8l-107,61.8L1792.1,1313.6z M1901.1,1250.7l107-61.8l107,61.8l-107,61.8L1901.1,1250.7z
			 M2010.1,1187.7l107-61.8l107,61.8l-107,61.8L2010.1,1187.7z M2119.1,1124.8l107-61.8l107,61.8l-107,61.8L2119.1,1124.8z
			 M2228.1,1061.9l107-61.8l107,61.8l-107,61.8L2228.1,1061.9z M2337.1,998.9l107-61.8l107,61.8l-107,61.8L2337.1,998.9z
			 M2446.1,936l107-61.8l107,61.8l-107,61.8L2446.1,936z M2555.1,873.1l107-61.8l107,61.8l-107,61.8L2555.1,873.1z M2664.1,810.1
			l107-61.8l107,61.8l-107,61.8L2664.1,810.1z M2773.1,747.2l107-61.8l107,61.8l-107,61.8L2773.1,747.2z M2771.1,746l-107-61.8
			l107-61.8l107,61.8L2771.1,746z M2662.1,683.1l-107-61.8l107-61.8l107,61.8L2662.1,683.1z M2553.1,620.2l-107-61.8l107-61.8
			l107,61.8L2553.1,620.2z M2444.1,557.2l-107-61.8l107-61.8l107,61.8L2444.1,557.2z M2335.1,494.3l-107-61.8l107-61.8l107,61.8
			L2335.1,494.3z M2226.1,431.4l-107-61.8l107-61.8l107,61.8L2226.1,431.4z M2117.1,368.4l-107-61.8l107-61.8l107,61.8L2117.1,368.4
			z M2008.1,305.5l-107-61.8l107-61.8l107,61.8L2008.1,305.5z M1899.1,242.5l-107-61.8l107-61.8l107,61.8L1899.1,242.5z
			 M1790.1,179.6l-107-61.8l107-61.8l107,61.8L1790.1,179.6z M1681,116.7l-107-61.8l107-61.8l107,61.8L1681,116.7z M1572,53.7
			L1465-8.1l107-61.8l107,61.8L1572,53.7z M1463-9.2L1356-71l107-61.8L1570-71L1463-9.2z M1354-72.1l-107-61.8l107-61.8l107,61.8
			L1354-72.1z M1352-71L1245-9.2L1138-71l107-61.8L1352-71z M1243-8.1l-107,61.8L1029-8.1l107-61.8L1243-8.1z M1134,54.9l-107,61.8
			L920,54.9l107-61.8L1134,54.9z M1025,117.8l-107,61.8l-107-61.8L918,56L1025,117.8z M916,180.8l-107,61.8l-107-61.8L809,119
			L916,180.8z M807,243.7l-107,61.8l-107-61.8l107-61.8L807,243.7z M698,306.6l-107,61.8l-107-61.8l107-61.8L698,306.6z
			 M588.9,369.6l-107,61.8l-107-61.8l107-61.8L588.9,369.6z M479.9,432.5l-107,61.8l-107-61.8l107-61.8L479.9,432.5z M370.9,495.4
			l-107,61.8l-107-61.8l107-61.8L370.9,495.4z M261.9,558.4l-107,61.8l-107-61.8l107-61.8L261.9,558.4z M152.9,621.3l-107,61.8
			l-107-61.8l107-61.8L152.9,621.3z M43.9,684.2l-107,61.8l-107-61.8l107-61.8L43.9,684.2z M-65.1,747.2l-107,61.8l-107-61.8
			l107-61.8L-65.1,747.2z M-174.1,810.1l-107,61.8l-107-61.8l107-61.8L-174.1,810.1z M-283.1,873.1l-107,61.8l-107-61.8l107-61.8
			L-283.1,873.1z M-392.1,936l-107,61.8l-107-61.8l107-61.8L-392.1,936z M-501.1,998.9l-107,61.8l-107-61.8l107-61.8L-501.1,998.9z
			 M-610.2,1061.9l-107,61.8l-107-61.8l107-61.8L-610.2,1061.9z M-608.2,1063l107,61.8l-107,61.8l-107-61.8L-608.2,1063z
			 M-499.1,1126l107,61.8l-107,61.8l-107-61.8L-499.1,1126z M-390.1,1188.9l107,61.8l-107,61.8l-107-61.8L-390.1,1188.9z
			 M-281.1,1251.8l107,61.8l-107,61.8l-107-61.8L-281.1,1251.8z M-172.1,1314.8l107,61.8l-107,61.8l-107-61.8L-172.1,1314.8z
			 M-63.1,1377.7l107,61.8l-107,61.8l-107-61.8L-63.1,1377.7z M45.9,1440.6l107,61.8l-107,61.8l-107-61.8L45.9,1440.6z
			 M154.9,1503.6l107,61.8l-107,61.8l-107-61.8L154.9,1503.6z M263.9,1566.5l107,61.8l-107,61.8l-107-61.8L263.9,1566.5z
			 M372.9,1629.5l107,61.8l-107,61.8l-107-61.8L372.9,1629.5z M481.9,1692.4l107,61.8l-107,61.8l-107-61.8L481.9,1692.4z
			 M591,1755.3l107,61.8l-107,61.8l-107-61.8L591,1755.3z M700,1818.3l107,61.8l-107,61.8l-107-61.8L700,1818.3z M809,1881.2
			l107,61.8l-107,61.8L702,1943L809,1881.2z M918,1944.1l107,61.8l-107,61.8l-107-61.8L918,1944.1z M920,1943l107-61.8l107,61.8
			l-107,61.8L920,1943z M1029,1880.1l107-61.8l107,61.8l-107,61.8L1029,1880.1z M1138,1817.1l107-61.8l107,61.8l-107,61.8
			L1138,1817.1z M1247,1754.2l107-61.8l107,61.8l-107,61.8L1247,1754.2z M1356,1691.2l107-61.8l107,61.8l-107,61.8L1356,1691.2z
			 M1465,1628.3l107-61.8l107,61.8l-107,61.8L1465,1628.3z M1574,1565.4l107-61.8l107,61.8l-107,61.8L1574,1565.4z M1683.1,1502.4
			l107-61.8l107,61.8l-107,61.8L1683.1,1502.4z M1792.1,1439.5l107-61.8l107,61.8l-107,61.8L1792.1,1439.5z M1901.1,1376.6l107-61.8
			l107,61.8l-107,61.8L1901.1,1376.6z M2010.1,1313.6l107-61.8l107,61.8l-107,61.8L2010.1,1313.6z M2119.1,1250.7l107-61.8l107,61.8
			l-107,61.8L2119.1,1250.7z M2228.1,1187.7l107-61.8l107,61.8l-107,61.8L2228.1,1187.7z M2337.1,1124.8l107-61.8l107,61.8
			l-107,61.8L2337.1,1124.8z M2446.1,1061.9l107-61.8l107,61.8l-107,61.8L2446.1,1061.9z M2555.1,998.9l107-61.8l107,61.8l-107,61.8
			L2555.1,998.9z M2664.1,936l107-61.8l107,61.8l-107,61.8L2664.1,936z M2773.1,873.1l107-61.8l107,61.8l-107,61.8L2773.1,873.1z
			 M2882.2,810.1l107-61.8l107,61.8l-107,61.8L2882.2,810.1z M2991.2,747.2l107-61.8l107,61.8l-107,61.8L2991.2,747.2z M2989.2,746
			l-107-61.8l107-61.8l107,61.8L2989.2,746z M2880.2,683.1l-107-61.8l107-61.8l107,61.8L2880.2,683.1z M2771.1,620.2l-107-61.8
			l107-61.8l107,61.8L2771.1,620.2z M2662.1,557.2l-107-61.8l107-61.8l107,61.8L2662.1,557.2z M2553.1,494.3l-107-61.8l107-61.8
			l107,61.8L2553.1,494.3z M2444.1,431.4l-107-61.8l107-61.8l107,61.8L2444.1,431.4z M2335.1,368.4l-107-61.8l107-61.8l107,61.8
			L2335.1,368.4z M2226.1,305.5l-107-61.8l107-61.8l107,61.8L2226.1,305.5z M2117.1,242.5l-107-61.8l107-61.8l107,61.8L2117.1,242.5
			z M2008.1,179.6l-107-61.8l107-61.8l107,61.8L2008.1,179.6z M1899.1,116.7l-107-61.8l107-61.8l107,61.8L1899.1,116.7z
			 M1790.1,53.7L1683-8.1l107-61.8l107,61.8L1790.1,53.7z M1681-9.2L1574-71l107-61.8l107,61.8L1681-9.2z M1572-72.1l-107-61.8
			l107-61.8l107,61.8L1572-72.1z M1463-135.1l-107-61.8l107-61.8l107,61.8L1463-135.1z M1354-198l-107-61.8l107-61.8l107,61.8
			L1354-198z M1352-196.9l-107,61.8l-107-61.8l107-61.8L1352-196.9z M1243-133.9l-107,61.8l-107-61.8l107-61.8L1243-133.9z M1134-71
			L1027-9.2L920-71l107-61.8L1134-71z M1025-8.1L918,53.7L811-8.1l107-61.8L1025-8.1z M916,54.9l-107,61.8L702,54.9L809-6.9
			L916,54.9z M807,117.8l-107,61.8l-107-61.8L700,56L807,117.8z M698,180.8l-107,61.8l-107-61.8l107-61.8L698,180.8z M588.9,243.7
			l-107,61.8l-107-61.8l107-61.8L588.9,243.7z M479.9,306.6l-107,61.8l-107-61.8l107-61.8L479.9,306.6z M370.9,369.6l-107,61.8
			l-107-61.8l107-61.8L370.9,369.6z M261.9,432.5l-107,61.8l-107-61.8l107-61.8L261.9,432.5z M152.9,495.4l-107,61.8l-107-61.8
			l107-61.8L152.9,495.4z M43.9,558.4l-107,61.8l-107-61.8l107-61.8L43.9,558.4z M-65.1,621.3l-107,61.8l-107-61.8l107-61.8
			L-65.1,621.3z M-174.1,684.2l-107,61.8l-107-61.8l107-61.8L-174.1,684.2z M-283.1,747.2l-107,61.8l-107-61.8l107-61.8
			L-283.1,747.2z M-392.1,810.1l-107,61.8l-107-61.8l107-61.8L-392.1,810.1z M-501.2,873.1l-107,61.8l-107-61.8l107-61.8
			L-501.2,873.1z M-610.2,936l-107,61.8l-107-61.8l107-61.8L-610.2,936z M-719.2,998.9l-107,61.8l-107-61.8l107-61.8L-719.2,998.9z
			 M-828.2,1061.9l-107,61.8l-107-61.8l107-61.8L-828.2,1061.9z M-826.2,1063l107,61.8l-107,61.8l-107-61.8L-826.2,1063z
			 M-717.2,1126l107,61.8l-107,61.8l-107-61.8L-717.2,1126z M-608.2,1188.9l107,61.8l-107,61.8l-107-61.8L-608.2,1188.9z
			 M-499.1,1251.8l107,61.8l-107,61.8l-107-61.8L-499.1,1251.8z M-390.1,1314.8l107,61.8l-107,61.8l-107-61.8L-390.1,1314.8z
			 M-281.1,1377.7l107,61.8l-107,61.8l-107-61.8L-281.1,1377.7z M-172.1,1440.6l107,61.8l-107,61.8l-107-61.8L-172.1,1440.6z
			 M-63.1,1503.6l107,61.8l-107,61.8l-107-61.8L-63.1,1503.6z M45.9,1566.5l107,61.8l-107,61.8l-107-61.8L45.9,1566.5z
			 M154.9,1629.5l107,61.8l-107,61.8l-107-61.8L154.9,1629.5z M263.9,1692.4l107,61.8l-107,61.8l-107-61.8L263.9,1692.4z
			 M372.9,1755.3l107,61.8l-107,61.8l-107-61.8L372.9,1755.3z M481.9,1818.3l107,61.8l-107,61.8l-107-61.8L481.9,1818.3z
			 M591,1881.2l107,61.8l-107,61.8l-107-61.8L591,1881.2z M700,1944.1l107,61.8l-107,61.8l-107-61.8L700,1944.1z M809,2007.1
			l107,61.8l-107,61.8l-107-61.8L809,2007.1z M918,2070l107,61.8l-107,61.8l-107-61.8L918,2070z M920,2068.9l107-61.8l107,61.8
			l-107,61.8L920,2068.9z M1029,2005.9l107-61.8l107,61.8l-107,61.8L1029,2005.9z M1138,1943l107-61.8l107,61.8l-107,61.8L1138,1943
			z M1247,1880.1l107-61.8l107,61.8l-107,61.8L1247,1880.1z M1356,1817.1l107-61.8l107,61.8l-107,61.8L1356,1817.1z M1465,1754.2
			l107-61.8l107,61.8l-107,61.8L1465,1754.2z M1574,1691.2l107-61.8l107,61.8l-107,61.8L1574,1691.2z M1683.1,1628.3l107-61.8
			l107,61.8l-107,61.8L1683.1,1628.3z M1792.1,1565.4l107-61.8l107,61.8l-107,61.8L1792.1,1565.4z M1901.1,1502.4l107-61.8l107,61.8
			l-107,61.8L1901.1,1502.4z M2010.1,1439.5l107-61.8l107,61.8l-107,61.8L2010.1,1439.5z M2119.1,1376.6l107-61.8l107,61.8
			l-107,61.8L2119.1,1376.6z M2228.1,1313.6l107-61.8l107,61.8l-107,61.8L2228.1,1313.6z M2337.1,1250.7l107-61.8l107,61.8
			l-107,61.8L2337.1,1250.7z M2446.1,1187.8l107-61.8l107,61.8l-107,61.8L2446.1,1187.8z M2555.1,1124.8l107-61.8l107,61.8
			l-107,61.8L2555.1,1124.8z M2664.1,1061.9l107-61.8l107,61.8l-107,61.8L2664.1,1061.9z M2773.2,998.9l107-61.8l107,61.8l-107,61.8
			L2773.2,998.9z M2882.2,936l107-61.8l107,61.8l-107,61.8L2882.2,936z M2991.2,873.1l107-61.8l107,61.8l-107,61.8L2991.2,873.1z
			 M3100.2,810.1l107-61.8l107,61.8l-107,61.8L3100.2,810.1z M3209.2,747.2l107-61.8l107,61.8l-107,61.8L3209.2,747.2z M3207.2,746
			l-107-61.8l107-61.8l107,61.8L3207.2,746z M3098.2,683.1l-107-61.8l107-61.8l107,61.8L3098.2,683.1z M2989.2,620.2l-107-61.8
			l107-61.8l107,61.8L2989.2,620.2z M2880.2,557.2l-107-61.8l107-61.8l107,61.8L2880.2,557.2z M2771.1,494.3l-107-61.8l107-61.8
			l107,61.8L2771.1,494.3z M2662.1,431.4l-107-61.8l107-61.8l107,61.8L2662.1,431.4z M2553.1,368.4l-107-61.8l107-61.8l107,61.8
			L2553.1,368.4z M2444.1,305.5l-107-61.8l107-61.8l107,61.8L2444.1,305.5z M2335.1,242.5l-107-61.8l107-61.8l107,61.8L2335.1,242.5
			z M2226.1,179.6l-107-61.8l107-61.8l107,61.8L2226.1,179.6z M2117.1,116.7l-107-61.8l107-61.8l107,61.8L2117.1,116.7z
			 M2008.1,53.7l-107-61.8l107-61.8l107,61.8L2008.1,53.7z M1899.1-9.2l-107-61.8l107-61.8l107,61.8L1899.1-9.2z M1790.1-72.1
			l-107-61.8l107-61.8l107,61.8L1790.1-72.1z M1681-135.1l-107-61.8l107-61.8l107,61.8L1681-135.1z M1572-198l-107-61.8l107-61.8
			l107,61.8L1572-198z M1463-261l-107-61.8l107-61.8l107,61.8L1463-261z M1354-323.9l-107-61.8l107-61.8l107,61.8L1354-323.9z
			 M1352-322.7L1245-261l-107-61.8l107-61.8L1352-322.7z M1243-259.8L1136-198l-107-61.8l107-61.8L1243-259.8z M1134-196.9
			l-107,61.8l-107-61.8l107-61.8L1134-196.9z M1025-133.9L918-72.1l-107-61.8l107-61.8L1025-133.9z M916-71L809-9.2L702-71l107-61.8
			L916-71z M807-8.1L700,53.7l-107-61.8l107-61.8L807-8.1z M698,54.9l-107,61.8l-107-61.8l107-61.8L698,54.9z M588.9,117.8
			l-107,61.8l-107-61.8l107-61.8L588.9,117.8z M479.9,180.8l-107,61.8l-107-61.8l107-61.8L479.9,180.8z M370.9,243.7l-107,61.8
			l-107-61.8l107-61.8L370.9,243.7z M261.9,306.6l-107,61.8l-107-61.8l107-61.8L261.9,306.6z M152.9,369.6l-107,61.8l-107-61.8
			l107-61.8L152.9,369.6z M43.9,432.5l-107,61.8l-107-61.8l107-61.8L43.9,432.5z M-65.1,495.4l-107,61.8l-107-61.8l107-61.8
			L-65.1,495.4z M-174.1,558.4l-107,61.8l-107-61.8l107-61.8L-174.1,558.4z M-283.1,621.3l-107,61.8l-107-61.8l107-61.8
			L-283.1,621.3z M-392.1,684.2l-107,61.8l-107-61.8l107-61.8L-392.1,684.2z M-501.2,747.2l-107,61.8l-107-61.8l107-61.8
			L-501.2,747.2z M-610.2,810.1l-107,61.8l-107-61.8l107-61.8L-610.2,810.1z M-719.2,873.1l-107,61.8l-107-61.8l107-61.8
			L-719.2,873.1z M-828.2,936l-107,61.8l-107-61.8l107-61.8L-828.2,936z M-937.2,998.9l-107,61.8l-107-61.8l107-61.8L-937.2,998.9z
			 M-1046.2,1061.9l-107,61.8l-107-61.8l107-61.8L-1046.2,1061.9z M-1044.2,1063l107,61.8l-107,61.8l-107-61.8L-1044.2,1063z
			 M-935.2,1126l107,61.8l-107,61.8l-107-61.8L-935.2,1126z M-826.2,1188.9l107,61.8l-107,61.8l-107-61.8L-826.2,1188.9z
			 M-717.2,1251.8l107,61.8l-107,61.8l-107-61.8L-717.2,1251.8z M-608.2,1314.8l107,61.8l-107,61.8l-107-61.8L-608.2,1314.8z
			 M-499.1,1377.7l107,61.8l-107,61.8l-107-61.8L-499.1,1377.7z M-390.1,1440.6l107,61.8l-107,61.8l-107-61.8L-390.1,1440.6z
			 M-281.1,1503.6l107,61.8l-107,61.8l-107-61.8L-281.1,1503.6z M-172.1,1566.5l107,61.8l-107,61.8l-107-61.8L-172.1,1566.5z
			 M-63.1,1629.5l107,61.8l-107,61.8l-107-61.8L-63.1,1629.5z M45.9,1692.4l107,61.8l-107,61.8l-107-61.8L45.9,1692.4z
			 M154.9,1755.3l107,61.8l-107,61.8l-107-61.8L154.9,1755.3z M263.9,1818.3l107,61.8l-107,61.8l-107-61.8L263.9,1818.3z
			 M372.9,1881.2l107,61.8l-107,61.8l-107-61.8L372.9,1881.2z M481.9,1944.1l107,61.8l-107,61.8l-107-61.8L481.9,1944.1z
			 M591,2007.1l107,61.8l-107,61.8l-107-61.8L591,2007.1z M700,2070l107,61.8l-107,61.8l-107-61.8L700,2070z M809,2133l107,61.8
			l-107,61.8l-107-61.8L809,2133z M918,2195.9l107,61.8l-107,61.8l-107-61.8L918,2195.9z M920,2194.7l107-61.8l107,61.8l-107,61.8
			L920,2194.7z M1029,2131.8l107-61.8l107,61.8l-107,61.8L1029,2131.8z M1138,2068.9l107-61.8l107,61.8l-107,61.8L1138,2068.9z
			 M1247,2005.9l107-61.8l107,61.8l-107,61.8L1247,2005.9z M1356,1943l107-61.8l107,61.8l-107,61.8L1356,1943z M1465,1880.1
			l107-61.8l107,61.8l-107,61.8L1465,1880.1z M1574,1817.1l107-61.8l107,61.8l-107,61.8L1574,1817.1z M1683.1,1754.2l107-61.8
			l107,61.8l-107,61.8L1683.1,1754.2z M1792.1,1691.2l107-61.8l107,61.8l-107,61.8L1792.1,1691.2z M1901.1,1628.3l107-61.8l107,61.8
			l-107,61.8L1901.1,1628.3z M2010.1,1565.4l107-61.8l107,61.8l-107,61.8L2010.1,1565.4z M2119.1,1502.4l107-61.8l107,61.8
			l-107,61.8L2119.1,1502.4z M2228.1,1439.5l107-61.8l107,61.8l-107,61.8L2228.1,1439.5z M2337.1,1376.6l107-61.8l107,61.8
			l-107,61.8L2337.1,1376.6z M2446.1,1313.6l107-61.8l107,61.8l-107,61.8L2446.1,1313.6z M2555.1,1250.7l107-61.8l107,61.8
			l-107,61.8L2555.1,1250.7z M2664.1,1187.8l107-61.8l107,61.8l-107,61.8L2664.1,1187.8z M2773.2,1124.8l107-61.8l107,61.8
			l-107,61.8L2773.2,1124.8z M2882.2,1061.9l107-61.8l107,61.8l-107,61.8L2882.2,1061.9z M2991.2,998.9l107-61.8l107,61.8l-107,61.8
			L2991.2,998.9z M3100.2,936l107-61.8l107,61.8l-107,61.8L3100.2,936z M3209.2,873.1l107-61.8l107,61.8l-107,61.8L3209.2,873.1z
			 M3318.2,810.1l107-61.8l107,61.8l-107,61.8L3318.2,810.1z M3427.2,747.2l107-61.8l107,61.8l-107,61.8L3427.2,747.2z M3425.2,746
			l-107-61.8l107-61.8l107,61.8L3425.2,746z M3316.2,683.1l-107-61.8l107-61.8l107,61.8L3316.2,683.1z M3207.2,620.2l-107-61.8
			l107-61.8l107,61.8L3207.2,620.2z M3098.2,557.2l-107-61.8l107-61.8l107,61.8L3098.2,557.2z M2989.2,494.3l-107-61.8l107-61.8
			l107,61.8L2989.2,494.3z M2880.2,431.4l-107-61.8l107-61.8l107,61.8L2880.2,431.4z M2771.1,368.4l-107-61.8l107-61.8l107,61.8
			L2771.1,368.4z M2662.1,305.5l-107-61.8l107-61.8l107,61.8L2662.1,305.5z M2553.1,242.5l-107-61.8l107-61.8l107,61.8L2553.1,242.5
			z M2444.1,179.6l-107-61.8l107-61.8l107,61.8L2444.1,179.6z M2335.1,116.7l-107-61.8l107-61.8l107,61.8L2335.1,116.7z
			 M2226.1,53.7l-107-61.8l107-61.8l107,61.8L2226.1,53.7z M2117.1-9.2l-107-61.8l107-61.8l107,61.8L2117.1-9.2z M2008.1-72.1
			l-107-61.8l107-61.8l107,61.8L2008.1-72.1z M1899.1-135.1l-107-61.8l107-61.8l107,61.8L1899.1-135.1z M1790.1-198l-107-61.8
			l107-61.8l107,61.8L1790.1-198z M1681-261l-107-61.8l107-61.8l107,61.8L1681-261z M1572-323.9l-107-61.8l107-61.8l107,61.8
			L1572-323.9z M1463-386.8l-107-61.8l107-61.8l107,61.8L1463-386.8z M1354-449.8l-107-61.8l107-61.8l107,61.8L1354-449.8z
			 M1352-448.6l-107,61.8l-107-61.8l107-61.8L1352-448.6z M1243-385.7l-107,61.8l-107-61.8l107-61.8L1243-385.7z M1134-322.7
			L1027-261l-107-61.8l107-61.8L1134-322.7z M1025-259.8L918-198l-107-61.8l107-61.8L1025-259.8z M916-196.9l-107,61.8l-107-61.8
			l107-61.8L916-196.9z M807-133.9L700-72.1l-107-61.8l107-61.8L807-133.9z M698-71l-107,61.8L483.9-71l107-61.8L698-71z M588.9-8.1
			l-107,61.8l-107-61.8l107-61.8L588.9-8.1z M479.9,54.9l-107,61.8l-107-61.8l107-61.8L479.9,54.9z M370.9,117.8l-107,61.8
			l-107-61.8l107-61.8L370.9,117.8z M261.9,180.8l-107,61.8l-107-61.8l107-61.8L261.9,180.8z M152.9,243.7l-107,61.8l-107-61.8
			l107-61.8L152.9,243.7z M43.9,306.6l-107,61.8l-107-61.8l107-61.8L43.9,306.6z M-65.1,369.6l-107,61.8l-107-61.8l107-61.8
			L-65.1,369.6z M-174.1,432.5l-107,61.8l-107-61.8l107-61.8L-174.1,432.5z M-283.1,495.4l-107,61.8l-107-61.8l107-61.8
			L-283.1,495.4z M-392.1,558.4l-107,61.8l-107-61.8l107-61.8L-392.1,558.4z M-501.2,621.3l-107,61.8l-107-61.8l107-61.8
			L-501.2,621.3z M-610.2,684.2l-107,61.8l-107-61.8l107-61.8L-610.2,684.2z M-719.2,747.2l-107,61.8l-107-61.8l107-61.8
			L-719.2,747.2z M-828.2,810.1l-107,61.8l-107-61.8l107-61.8L-828.2,810.1z M-937.2,873.1l-107,61.8l-107-61.8l107-61.8
			L-937.2,873.1z M-1046.2,936l-107,61.8l-107-61.8l107-61.8L-1046.2,936z M-1155.2,998.9l-107,61.8l-107-61.8l107-61.8
			L-1155.2,998.9z M-1264.2,1061.9l-107,61.8l-107-61.8l107-61.8L-1264.2,1061.9z M-1262.2,1063l107,61.8l-107,61.8l-107-61.8
			L-1262.2,1063z M-1153.2,1126l107,61.8l-107,61.8l-107-61.8L-1153.2,1126z M-1044.2,1188.9l107,61.8l-107,61.8l-107-61.8
			L-1044.2,1188.9z M-935.2,1251.8l107,61.8l-107,61.8l-107-61.8L-935.2,1251.8z M-826.2,1314.8l107,61.8l-107,61.8l-107-61.8
			L-826.2,1314.8z M-717.2,1377.7l107,61.8l-107,61.8l-107-61.8L-717.2,1377.7z M-608.2,1440.6l107,61.8l-107,61.8l-107-61.8
			L-608.2,1440.6z M-499.1,1503.6l107,61.8l-107,61.8l-107-61.8L-499.1,1503.6z M-390.1,1566.5l107,61.8l-107,61.8l-107-61.8
			L-390.1,1566.5z M-281.1,1629.5l107,61.8l-107,61.8l-107-61.8L-281.1,1629.5z M-172.1,1692.4l107,61.8l-107,61.8l-107-61.8
			L-172.1,1692.4z M-63.1,1755.3l107,61.8l-107,61.8l-107-61.8L-63.1,1755.3z M45.9,1818.3l107,61.8l-107,61.8l-107-61.8
			L45.9,1818.3z M154.9,1881.2l107,61.8l-107,61.8l-107-61.8L154.9,1881.2z M263.9,1944.1l107,61.8l-107,61.8l-107-61.8
			L263.9,1944.1z M372.9,2007.1l107,61.8l-107,61.8l-107-61.8L372.9,2007.1z M481.9,2070l107,61.8l-107,61.8l-107-61.8L481.9,2070z
			 M591,2133l107,61.8l-107,61.8l-107-61.8L591,2133z M700,2195.9l107,61.8l-107,61.8l-107-61.8L700,2195.9z M809,2258.8l107,61.8
			l-107,61.8l-107-61.8L809,2258.8z M918,2321.8l107,61.8l-107,61.8l-107-61.8L918,2321.8z M920,2320.6l107-61.8l107,61.8l-107,61.8
			L920,2320.6z M1029,2257.7l107-61.8l107,61.8l-107,61.8L1029,2257.7z M1138,2194.7l107-61.8l107,61.8l-107,61.8L1138,2194.7z
			 M1247,2131.8l107-61.8l107,61.8l-107,61.8L1247,2131.8z M1356,2068.9l107-61.8l107,61.8l-107,61.8L1356,2068.9z M1465,2005.9
			l107-61.8l107,61.8l-107,61.8L1465,2005.9z M1574,1943l107-61.8l107,61.8l-107,61.8L1574,1943z M1683.1,1880.1l107-61.8l107,61.8
			l-107,61.8L1683.1,1880.1z M1792.1,1817.1l107-61.8l107,61.8l-107,61.8L1792.1,1817.1z M1901.1,1754.2l107-61.8l107,61.8
			l-107,61.8L1901.1,1754.2z M2010.1,1691.2l107-61.8l107,61.8l-107,61.8L2010.1,1691.2z M2119.1,1628.3l107-61.8l107,61.8
			l-107,61.8L2119.1,1628.3z M2228.1,1565.4l107-61.8l107,61.8l-107,61.8L2228.1,1565.4z M2337.1,1502.4l107-61.8l107,61.8
			l-107,61.8L2337.1,1502.4z M2446.1,1439.5l107-61.8l107,61.8l-107,61.8L2446.1,1439.5z M2555.1,1376.6l107-61.8l107,61.8
			l-107,61.8L2555.1,1376.6z M2664.1,1313.6l107-61.8l107,61.8l-107,61.8L2664.1,1313.6z M2773.2,1250.7l107-61.8l107,61.8
			l-107,61.8L2773.2,1250.7z M2882.2,1187.8l107-61.8l107,61.8l-107,61.8L2882.2,1187.8z M2991.2,1124.8l107-61.8l107,61.8
			l-107,61.8L2991.2,1124.8z M3100.2,1061.9l107-61.8l107,61.8l-107,61.8L3100.2,1061.9z M3209.2,998.9l107-61.8l107,61.8l-107,61.8
			L3209.2,998.9z M3318.2,936l107-61.8l107,61.8l-107,61.8L3318.2,936z M3427.2,873.1l107-61.8l107,61.8l-107,61.8L3427.2,873.1z
			 M3536.2,810.1l107-61.8l107,61.8l-107,61.8L3536.2,810.1z M3645.2,747.2l107-61.8l107,61.8l-107,61.8L3645.2,747.2z M3643.2,746
			l-107-61.8l107-61.8l107,61.8L3643.2,746z M3534.2,683.1l-107-61.8l107-61.8l107,61.8L3534.2,683.1z M3425.2,620.2l-107-61.8
			l107-61.8l107,61.8L3425.2,620.2z M3316.2,557.2l-107-61.8l107-61.8l107,61.8L3316.2,557.2z M3207.2,494.3l-107-61.8l107-61.8
			l107,61.8L3207.2,494.3z M3098.2,431.4l-107-61.8l107-61.8l107,61.8L3098.2,431.4z M2989.2,368.4l-107-61.8l107-61.8l107,61.8
			L2989.2,368.4z M2880.2,305.5l-107-61.8l107-61.8l107,61.8L2880.2,305.5z M2771.1,242.5l-107-61.8l107-61.8l107,61.8L2771.1,242.5
			z M2662.1,179.6l-107-61.8l107-61.8l107,61.8L2662.1,179.6z M2553.1,116.7l-107-61.8l107-61.8l107,61.8L2553.1,116.7z
			 M2444.1,53.7l-107-61.8l107-61.8l107,61.8L2444.1,53.7z M2335.1-9.2l-107-61.8l107-61.8l107,61.8L2335.1-9.2z M2226.1-72.1
			l-107-61.8l107-61.8l107,61.8L2226.1-72.1z M2117.1-135.1l-107-61.8l107-61.8l107,61.8L2117.1-135.1z M2008.1-198l-107-61.8
			l107-61.8l107,61.8L2008.1-198z M1899.1-261l-107-61.8l107-61.8l107,61.8L1899.1-261z M1790.1-323.9l-107-61.8l107-61.8l107,61.8
			L1790.1-323.9z M1681-386.8l-107-61.8l107-61.8l107,61.8L1681-386.8z M1572-449.8l-107-61.8l107-61.8l107,61.8L1572-449.8z
			 M1463-512.7l-107-61.8l107-61.8l107,61.8L1463-512.7z M1354-575.6l-107-61.8l107-61.8l107,61.8L1354-575.6z M1352-574.5
			l-107,61.8l-107-61.8l107-61.8L1352-574.5z M1243-511.6l-107,61.8l-107-61.8l107-61.8L1243-511.6z M1134-448.6l-107,61.8
			l-107-61.8l107-61.8L1134-448.6z M1025-385.7l-107,61.8l-107-61.8l107-61.8L1025-385.7z M916-322.7L809-261l-107-61.8l107-61.8
			L916-322.7z M807-259.8L700-198l-107-61.8l107-61.8L807-259.8z M698-196.9l-107,61.8l-107-61.8l107-61.8L698-196.9z M588.9-133.9
			l-107,61.8l-107-61.8l107-61.8L588.9-133.9z M479.9-71l-107,61.8L265.9-71l107-61.8L479.9-71z M370.9-8.1l-107,61.8l-107-61.8
			l107-61.8L370.9-8.1z M261.9,54.9l-107,61.8l-107-61.8l107-61.8L261.9,54.9z M152.9,117.8l-107,61.8l-107-61.8L45.9,56
			L152.9,117.8z M43.9,180.8l-107,61.8l-107-61.8l107-61.8L43.9,180.8z M-65.1,243.7l-107,61.8l-107-61.8l107-61.8L-65.1,243.7z
			 M-174.1,306.6l-107,61.8l-107-61.8l107-61.8L-174.1,306.6z M-283.1,369.6l-107,61.8l-107-61.8l107-61.8L-283.1,369.6z
			 M-392.1,432.5l-107,61.8l-107-61.8l107-61.8L-392.1,432.5z M-501.2,495.4l-107,61.8l-107-61.8l107-61.8L-501.2,495.4z
			 M-610.2,558.4l-107,61.8l-107-61.8l107-61.8L-610.2,558.4z M-719.2,621.3l-107,61.8l-107-61.8l107-61.8L-719.2,621.3z
			 M-828.2,684.2l-107,61.8l-107-61.8l107-61.8L-828.2,684.2z M-937.2,747.2l-107,61.8l-107-61.8l107-61.8L-937.2,747.2z
			 M-1046.2,810.1l-107,61.8l-107-61.8l107-61.8L-1046.2,810.1z M-1155.2,873.1l-107,61.8l-107-61.8l107-61.8L-1155.2,873.1z
			 M-1264.2,936l-107,61.8l-107-61.8l107-61.8L-1264.2,936z M-1373.2,998.9l-107,61.8l-107-61.8l107-61.8L-1373.2,998.9z
			 M-1482.2,1061.9l-107,61.8l-107-61.8l107-61.8L-1482.2,1061.9z M-1480.2,1063l107,61.8l-107,61.8l-107-61.8L-1480.2,1063z
			 M-1371.2,1126l107,61.8l-107,61.8l-107-61.8L-1371.2,1126z M-1262.2,1188.9l107,61.8l-107,61.8l-107-61.8L-1262.2,1188.9z
			 M-1153.2,1251.8l107,61.8l-107,61.8l-107-61.8L-1153.2,1251.8z M-1044.2,1314.8l107,61.8l-107,61.8l-107-61.8L-1044.2,1314.8z
			 M-935.2,1377.7l107,61.8l-107,61.8l-107-61.8L-935.2,1377.7z M-826.2,1440.6l107,61.8l-107,61.8l-107-61.8L-826.2,1440.6z
			 M-717.2,1503.6l107,61.8l-107,61.8l-107-61.8L-717.2,1503.6z M-608.2,1566.5l107,61.8l-107,61.8l-107-61.8L-608.2,1566.5z
			 M-499.1,1629.5l107,61.8l-107,61.8l-107-61.8L-499.1,1629.5z M-390.1,1692.4l107,61.8l-107,61.8l-107-61.8L-390.1,1692.4z
			 M-281.1,1755.3l107,61.8l-107,61.8l-107-61.8L-281.1,1755.3z M-172.1,1818.3l107,61.8l-107,61.8l-107-61.8L-172.1,1818.3z
			 M-63.1,1881.2l107,61.8l-107,61.8l-107-61.8L-63.1,1881.2z M45.9,1944.1l107,61.8l-107,61.8l-107-61.8L45.9,1944.1z
			 M154.9,2007.1l107,61.8l-107,61.8l-107-61.8L154.9,2007.1z M263.9,2070l107,61.8l-107,61.8l-107-61.8L263.9,2070z M372.9,2133
			l107,61.8l-107,61.8l-107-61.8L372.9,2133z M481.9,2195.9l107,61.8l-107,61.8l-107-61.8L481.9,2195.9z M591,2258.8l107,61.8
			l-107,61.8l-107-61.8L591,2258.8z M700,2321.8l107,61.8l-107,61.8l-107-61.8L700,2321.8z M809,2384.7l107,61.8l-107,61.8
			l-107-61.8L809,2384.7z M918,2447.6l107,61.8l-107,61.8l-107-61.8L918,2447.6z M920,2446.5l107-61.8l107,61.8l-107,61.8
			L920,2446.5z M1029,2383.6l107-61.8l107,61.8l-107,61.8L1029,2383.6z M1138,2320.6l107-61.8l107,61.8l-107,61.8L1138,2320.6z
			 M1247,2257.7l107-61.8l107,61.8l-107,61.8L1247,2257.7z M1356,2194.7l107-61.8l107,61.8l-107,61.8L1356,2194.7z M1465,2131.8
			l107-61.8l107,61.8l-107,61.8L1465,2131.8z M1574,2068.9l107-61.8l107,61.8l-107,61.8L1574,2068.9z M1683.1,2005.9l107-61.8
			l107,61.8l-107,61.8L1683.1,2005.9z M1792.1,1943l107-61.8l107,61.8l-107,61.8L1792.1,1943z M1901.1,1880.1l107-61.8l107,61.8
			l-107,61.8L1901.1,1880.1z M2010.1,1817.1l107-61.8l107,61.8l-107,61.8L2010.1,1817.1z M2119.1,1754.2l107-61.8l107,61.8
			l-107,61.8L2119.1,1754.2z M2228.1,1691.2l107-61.8l107,61.8l-107,61.8L2228.1,1691.2z M2337.1,1628.3l107-61.8l107,61.8
			l-107,61.8L2337.1,1628.3z M2446.1,1565.4l107-61.8l107,61.8l-107,61.8L2446.1,1565.4z M2555.1,1502.4l107-61.8l107,61.8
			l-107,61.8L2555.1,1502.4z M2664.1,1439.5l107-61.8l107,61.8l-107,61.8L2664.1,1439.5z M2773.2,1376.6l107-61.8l107,61.8
			l-107,61.8L2773.2,1376.6z M2882.2,1313.6l107-61.8l107,61.8l-107,61.8L2882.2,1313.6z M2991.2,1250.7l107-61.8l107,61.8
			l-107,61.8L2991.2,1250.7z M3100.2,1187.8l107-61.8l107,61.8l-107,61.8L3100.2,1187.8z M3209.2,1124.8l107-61.8l107,61.8
			l-107,61.8L3209.2,1124.8z M3318.2,1061.9l107-61.8l107,61.8l-107,61.8L3318.2,1061.9z M3427.2,998.9l107-61.8l107,61.8l-107,61.8
			L3427.2,998.9z M3536.2,936l107-61.8l107,61.8l-107,61.8L3536.2,936z M3645.2,873.1l107-61.8l107,61.8l-107,61.8L3645.2,873.1z
			 M3754.2,810.1l107-61.8l107,61.8l-107,61.8L3754.2,810.1z M3863.2,747.2l107-61.8l107,61.8l-107,61.8L3863.2,747.2z M3861.3,746
			l-107-61.8l107-61.8l107,61.8L3861.3,746z M3752.2,683.1l-107-61.8l107-61.8l107,61.8L3752.2,683.1z M3643.2,620.2l-107-61.8
			l107-61.8l107,61.8L3643.2,620.2z M3534.2,557.2l-107-61.8l107-61.8l107,61.8L3534.2,557.2z M3425.2,494.3l-107-61.8l107-61.8
			l107,61.8L3425.2,494.3z M3316.2,431.4l-107-61.8l107-61.8l107,61.8L3316.2,431.4z M3207.2,368.4l-107-61.8l107-61.8l107,61.8
			L3207.2,368.4z M3098.2,305.5l-107-61.8l107-61.8l107,61.8L3098.2,305.5z M2989.2,242.5l-107-61.8l107-61.8l107,61.8L2989.2,242.5
			z M2880.2,179.6l-107-61.8l107-61.8l107,61.8L2880.2,179.6z M2771.1,116.7l-107-61.8l107-61.8l107,61.8L2771.1,116.7z
			 M2662.1,53.7l-107-61.8l107-61.8l107,61.8L2662.1,53.7z M2553.1-9.2l-107-61.8l107-61.8l107,61.8L2553.1-9.2z M2444.1-72.1
			l-107-61.8l107-61.8l107,61.8L2444.1-72.1z M2335.1-135.1l-107-61.8l107-61.8l107,61.8L2335.1-135.1z M2226.1-198l-107-61.8
			l107-61.8l107,61.8L2226.1-198z M2117.1-261l-107-61.8l107-61.8l107,61.8L2117.1-261z M2008.1-323.9l-107-61.8l107-61.8l107,61.8
			L2008.1-323.9z M1899.1-386.8l-107-61.8l107-61.8l107,61.8L1899.1-386.8z M1790.1-449.8l-107-61.8l107-61.8l107,61.8L1790.1-449.8
			z M1681-512.7l-107-61.8l107-61.8l107,61.8L1681-512.7z M1572-575.6l-107-61.8l107-61.8l107,61.8L1572-575.6z M1463-638.6
			l-107-61.8l107-61.8l107,61.8L1463-638.6z M1354-701.5l-107-61.8l107-61.8l107,61.8L1354-701.5z M1352-700.4l-107,61.8l-107-61.8
			l107-61.8L1352-700.4z M1243-637.4l-107,61.8l-107-61.8l107-61.8L1243-637.4z M1134-574.5l-107,61.8l-107-61.8l107-61.8
			L1134-574.5z M1025-511.6l-107,61.8l-107-61.8l107-61.8L1025-511.6z M916-448.6l-107,61.8l-107-61.8l107-61.8L916-448.6z
			 M807-385.7l-107,61.8l-107-61.8l107-61.8L807-385.7z M698-322.7l-107,61.8l-107-61.8l107-61.8L698-322.7z M588.9-259.8l-107,61.8
			l-107-61.8l107-61.8L588.9-259.8z M479.9-196.9l-107,61.8l-107-61.8l107-61.8L479.9-196.9z M370.9-133.9l-107,61.8l-107-61.8
			l107-61.8L370.9-133.9z M261.9-71l-107,61.8L47.9-71l107-61.8L261.9-71z M152.9-8.1l-107,61.8l-107-61.8l107-61.8L152.9-8.1z
			 M43.9,54.9l-107,61.8l-107-61.8l107-61.8L43.9,54.9z M-65.1,117.8l-107,61.8l-107-61.8l107-61.8L-65.1,117.8z M-174.1,180.8
			l-107,61.8l-107-61.8l107-61.8L-174.1,180.8z M-283.1,243.7l-107,61.8l-107-61.8l107-61.8L-283.1,243.7z M-392.1,306.6l-107,61.8
			l-107-61.8l107-61.8L-392.1,306.6z M-501.2,369.6l-107,61.8l-107-61.8l107-61.8L-501.2,369.6z M-610.2,432.5l-107,61.8l-107-61.8
			l107-61.8L-610.2,432.5z M-719.2,495.4l-107,61.8l-107-61.8l107-61.8L-719.2,495.4z M-828.2,558.4l-107,61.8l-107-61.8l107-61.8
			L-828.2,558.4z M-937.2,621.3l-107,61.8l-107-61.8l107-61.8L-937.2,621.3z M-1046.2,684.2l-107,61.8l-107-61.8l107-61.8
			L-1046.2,684.2z M-1155.2,747.2l-107,61.8l-107-61.8l107-61.8L-1155.2,747.2z M-1264.2,810.1l-107,61.8l-107-61.8l107-61.8
			L-1264.2,810.1z M-1373.2,873.1l-107,61.8l-107-61.8l107-61.8L-1373.2,873.1z M-1482.2,936l-107,61.8l-107-61.8l107-61.8
			L-1482.2,936z M-1591.3,998.9l-107,61.8l-107-61.8l107-61.8L-1591.3,998.9z M-1700.3,1061.9l-107,61.8l-107-61.8l107-61.8
			L-1700.3,1061.9z M-1698.3,1063l107,61.8l-107,61.8l-107-61.8L-1698.3,1063z M-1589.3,1126l107,61.8l-107,61.8l-107-61.8
			L-1589.3,1126z M-1480.2,1188.9l107,61.8l-107,61.8l-107-61.8L-1480.2,1188.9z M-1371.2,1251.8l107,61.8l-107,61.8l-107-61.8
			L-1371.2,1251.8z M-1262.2,1314.8l107,61.8l-107,61.8l-107-61.8L-1262.2,1314.8z M-1153.2,1377.7l107,61.8l-107,61.8l-107-61.8
			L-1153.2,1377.7z M-1044.2,1440.6l107,61.8l-107,61.8l-107-61.8L-1044.2,1440.6z M-935.2,1503.6l107,61.8l-107,61.8l-107-61.8
			L-935.2,1503.6z M-826.2,1566.5l107,61.8l-107,61.8l-107-61.8L-826.2,1566.5z M-717.2,1629.5l107,61.8l-107,61.8l-107-61.8
			L-717.2,1629.5z M-608.2,1692.4l107,61.8l-107,61.8l-107-61.8L-608.2,1692.4z M-499.1,1755.3l107,61.8l-107,61.8l-107-61.8
			L-499.1,1755.3z M-390.1,1818.3l107,61.8l-107,61.8l-107-61.8L-390.1,1818.3z M-281.1,1881.2l107,61.8l-107,61.8l-107-61.8
			L-281.1,1881.2z M-172.1,1944.1l107,61.8l-107,61.8l-107-61.8L-172.1,1944.1z M-63.1,2007.1l107,61.8l-107,61.8l-107-61.8
			L-63.1,2007.1z M45.9,2070l107,61.8l-107,61.8l-107-61.8L45.9,2070z M154.9,2133l107,61.8l-107,61.8l-107-61.8L154.9,2133z
			 M263.9,2195.9l107,61.8l-107,61.8l-107-61.8L263.9,2195.9z M372.9,2258.8l107,61.8l-107,61.8l-107-61.8L372.9,2258.8z
			 M481.9,2321.8l107,61.8l-107,61.8l-107-61.8L481.9,2321.8z M591,2384.7l107,61.8l-107,61.8l-107-61.8L591,2384.7z M700,2447.6
			l107,61.8l-107,61.8l-107-61.8L700,2447.6z M809,2510.6l107,61.8l-107,61.8l-107-61.8L809,2510.6z M918,2573.5l107,61.8l-107,61.8
			l-107-61.8L918,2573.5z M920,2572.4l107-61.8l107,61.8l-107,61.8L920,2572.4z M1029,2509.4l107-61.8l107,61.8l-107,61.8
			L1029,2509.4z M1138,2446.5l107-61.8l107,61.8l-107,61.8L1138,2446.5z M1247,2383.6l107-61.8l107,61.8l-107,61.8L1247,2383.6z
			 M1356,2320.6l107-61.8l107,61.8l-107,61.8L1356,2320.6z M1465,2257.7l107-61.8l107,61.8l-107,61.8L1465,2257.7z M1574,2194.7
			l107-61.8l107,61.8l-107,61.8L1574,2194.7z M1683.1,2131.8l107-61.8l107,61.8l-107,61.8L1683.1,2131.8z M1792.1,2068.9l107-61.8
			l107,61.8l-107,61.8L1792.1,2068.9z M1901.1,2005.9l107-61.8l107,61.8l-107,61.8L1901.1,2005.9z M2010.1,1943l107-61.8l107,61.8
			l-107,61.8L2010.1,1943z M2119.1,1880.1l107-61.8l107,61.8l-107,61.8L2119.1,1880.1z M2228.1,1817.1l107-61.8l107,61.8l-107,61.8
			L2228.1,1817.1z M2337.1,1754.2l107-61.8l107,61.8l-107,61.8L2337.1,1754.2z M2446.1,1691.2l107-61.8l107,61.8l-107,61.8
			L2446.1,1691.2z M2555.1,1628.3l107-61.8l107,61.8l-107,61.8L2555.1,1628.3z M2664.1,1565.4l107-61.8l107,61.8l-107,61.8
			L2664.1,1565.4z M2773.2,1502.4l107-61.8l107,61.8l-107,61.8L2773.2,1502.4z M2882.2,1439.5l107-61.8l107,61.8l-107,61.8
			L2882.2,1439.5z M2991.2,1376.6l107-61.8l107,61.8l-107,61.8L2991.2,1376.6z M3100.2,1313.6l107-61.8l107,61.8l-107,61.8
			L3100.2,1313.6z M3209.2,1250.7l107-61.8l107,61.8l-107,61.8L3209.2,1250.7z M3318.2,1187.8l107-61.8l107,61.8l-107,61.8
			L3318.2,1187.8z M3427.2,1124.8l107-61.8l107,61.8l-107,61.8L3427.2,1124.8z M3536.2,1061.9l107-61.8l107,61.8l-107,61.8
			L3536.2,1061.9z M3645.2,998.9l107-61.8l107,61.8l-107,61.8L3645.2,998.9z M3754.2,936l107-61.8l107,61.8l-107,61.8L3754.2,936z
			 M3863.3,873.1l107-61.8l107,61.8l-107,61.8L3863.3,873.1z M3972.3,810.1l107-61.8l107,61.8l-107,61.8L3972.3,810.1z"/>
	</g>
</g>
<g id="Object">
	<g>
		<g>
			<g>
				<polygon class="st2" points="304.2,885 304.2,931.2 1422.6,1577 1422.6,1098 				"/>
				<polygon class="st3" points="1422.6,1098 1422.6,1577 2050.3,1214.6 2050.3,1168.4 				"/>
			</g>
			<g>
				<polygon class="st4" points="304.2,870.3 304.2,885 1422.6,1530.8 1422.6,1051.8 				"/>
				<polygon class="st5" points="1422.6,1051.8 1422.6,1530.8 2050.3,1168.4 2050.3,1153.6 				"/>
			</g>
			<g>
				<g>
					<polygon class="st6" points="1031.1,565.2 403.4,927.6 352.3,898.1 304.2,870.3 931.9,507.9 980,535.6 					"/>
				</g>
				<g>
					<g>
						<polygon class="st7" points="454.5,957.1 403.4,927.6 1031.1,565.2 1082.2,594.7 						"/>
					</g>
					<g>
						<polygon class="st6" points="505.6,986.6 454.5,957.1 1082.2,594.7 1133.4,624.2 						"/>
					</g>
					<g>
						<polygon class="st7" points="556.8,1016.1 505.6,986.6 1133.4,624.2 1184.5,653.7 						"/>
					</g>
					<g>
						<polygon class="st6" points="607.9,1045.6 556.8,1016.1 1184.5,653.7 1235.6,683.2 						"/>
					</g>
					<g>
						<polygon class="st7" points="659,1075.1 607.9,1045.6 1235.6,683.2 1286.7,712.7 						"/>
					</g>
					<g>
						<polygon class="st6" points="710.1,1104.6 659,1075.1 1286.7,712.7 1337.8,742.2 						"/>
					</g>
					<g>
						<polygon class="st7" points="761.2,1134.1 710.1,1104.6 1337.8,742.2 1388.9,771.7 						"/>
					</g>
					<g>
						<polygon class="st6" points="812.3,1163.6 761.2,1134.1 1388.9,771.7 1440,801.2 						"/>
					</g>
					<g>
						<polygon class="st7" points="863.4,1193.1 812.3,1163.6 1440,801.2 1491.1,830.7 						"/>
					</g>
					<g>
						<polygon class="st6" points="914.5,1222.7 863.4,1193.1 1491.1,830.7 1542.2,860.2 						"/>
					</g>
					<g>
						<polygon class="st7" points="965.6,1252.2 914.5,1222.7 1542.2,860.2 1593.4,889.8 						"/>
					</g>
					<g>
						<polygon class="st6" points="1016.8,1281.7 965.6,1252.2 1593.4,889.8 1644.5,919.3 						"/>
					</g>
					<g>
						<polygon class="st7" points="1067.9,1311.2 1016.8,1281.7 1644.5,919.3 1695.6,948.8 						"/>
					</g>
					<g>
						<polygon class="st6" points="1119,1340.7 1067.9,1311.2 1695.6,948.8 1746.7,978.3 						"/>
					</g>
					<g>
						<polygon class="st7" points="1170.1,1370.2 1119,1340.7 1746.7,978.3 1797.8,1007.8 						"/>
					</g>
					<g>
						<polygon class="st6" points="1221.2,1399.7 1170.1,1370.2 1797.8,1007.8 1848.9,1037.3 						"/>
					</g>
					<g>
						<polygon class="st7" points="1272.3,1429.2 1221.2,1399.7 1848.9,1037.3 1900,1066.8 						"/>
					</g>
					<g>
						<polygon class="st6" points="1323.4,1458.7 1272.3,1429.2 1900,1066.8 1951.1,1096.3 						"/>
					</g>
					<g>
						<polygon class="st7" points="2050.3,1153.6 1422.6,1516 1374.5,1488.2 1323.4,1458.7 1951.1,1096.3 2002.2,1125.8 						"/>
					</g>
				</g>
			</g>
			<g>
				<path class="st8" d="M974,594.7L785.9,703.3l-39.5,22.8l-64.3,37.1L642.6,786L454.5,894.6l926,534.6l188.1-108.6l39.5-22.8
					l64.3-37.1l39.5-22.8l188.1-108.6L974,594.7z M1874.4,1141.1c-10.4-6.7-10.4-16.9,0-23.7l20.5,11.8L1874.4,1141.1z M1181,1008.3
					c-2.8-1-6.5-0.8-8.9,0.6s-2.8,3.5-1.1,5.2l-64,37c-36.8-22-36.4-57.3,1.3-79c37.7-21.7,98.6-22,136.8-0.7L1181,1008.3z
					 M1173.5,1015.6c2.8,1,6.5,0.8,8.9-0.6c2.4-1.4,2.8-3.5,1.1-5.2l64-37c36.8,22,36.4,57.3-1.3,79c-37.7,21.7-98.6,22-136.8,0.7
					L1173.5,1015.6z M994.5,609.5c-11.7,6-29.3,6-41,0l20.5-11.8L994.5,609.5z M746.4,729l36.3,21l-59.2,34.2l-36.3-21L746.4,729z
					 M723.6,787.1l64.3-37.1L749,727.5l36.9-21.3l82,47.3l-138.1,79.8l-82-47.3l36.9-21.3L723.6,787.1z M729.8,836.3l35-20.2
					c20.9,4.6,44.5,1.7,60.4-7.5c15.9-9.2,20.9-22.8,12.9-34.8l35-20.2l-84.6-48.8l162.5-93.8c13.1,6.8,33.1,6.8,46.1,0l436.1,251.8
					l-185.6,107.1c-39.6-22.1-102.9-21.8-142,0.7s-39.5,59.1-1.3,82l-185.6,107.1L482.7,907.9c11.8-7.6,11.8-19.1,0-26.6l162.5-93.8
					L729.8,836.3z M835.2,775.4c6.6,11.1,1.8,23.4-12.7,31.7c-14.5,8.4-35.8,11.1-55,7.3L835.2,775.4z M480.2,882.8
					c10.4,6.7,10.4,16.9,0,23.7l-20.5-11.8L480.2,882.8z M1360,1414.4c11.7-6,29.3-6,41,0l-20.5,11.8L1360,1414.4z M1618.3,1289
					l-10.2,5.9l-36.3-21l59.2-34.2l36.3,21L1618.3,1289 M1631,1236.8l-64.3,37.1l38.9,22.4l-36.9,21.3l-82-47.3l138.1-79.8l82,47.3
					l-36.9,21.3L1631,1236.8z M1624.8,1187.6l-35,20.2c-20.9-4.6-44.5-1.7-60.4,7.5s-20.9,22.8-12.9,34.8l-35,20.2l84.6,48.8
					l-162.5,93.8c-13.1-6.8-33.1-6.8-46.1,0l-436.1-251.8L1107,1054c39.6,22.1,102.9,21.8,142-0.7s39.5-59.1,1.3-82l185.6-107.1
					l436.1,251.8c-11.8,7.6-11.8,19.1,0,26.6l-162.5,93.8L1624.8,1187.6z M1519.3,1248.5c-6.6-11.1-1.8-23.4,12.7-31.7
					c14.5-8.4,35.8-11.1,55-7.3L1519.3,1248.5z"/>
				<ellipse class="st8" cx="776.8" cy="780.7" rx="3.7" ry="2.1"/>
				<ellipse class="st8" cx="1577.7" cy="1243.1" rx="3.7" ry="2.1"/>
			</g>
		</g>
		<g>
			<g>
				<g>
					<polygon class="st9" points="512.9,504.5 505.1,509 505.6,691.9 512.7,696 512.1,513.1 520,508.6 					"/>
					<polygon class="st9" points="657.6,429.1 650.5,425.1 642.7,429.6 643.2,612.5 650.2,616.6 649.7,433.7 					"/>
				</g>
				<g>
					<g>
						<polygon class="st10" points="520,508.6 520.5,691.5 512.7,696 512.1,513.1 						"/>
					</g>
					<g class="st11">
						<g>
							<polygon class="st10" points="657.6,429.1 658.1,612 650.2,616.6 649.7,433.7 							"/>
						</g>
					</g>
				</g>
			</g>
			<g>
				<g class="st11">
					<g>
						<path class="st12" d="M687.9,278c12.3-7.1,22.2-1.4,22.3,12.7l0.2,83.9c0,14.1-9.9,31.2-22.1,38.3l-206,118.9
							c-12.3,7.1-22.2,1.4-22.3-12.7l-0.2-83.9c0-14.1,9.9-31.2,22.1-38.3L687.9,278z"/>
					</g>
				</g>
			</g>
			<g>
				<g>
					<g>
						<path class="st9" d="M708.3,377.4l-1.7-84.6c0-5.9-2.1-10-5.4-11.9l-7-4.1c3.3,1.9,5.4,6.1,5.4,11.9l0.2,83.9
							c0,11.9-8.4,26.3-18.6,32.2l-206,118.9c-4.1,2.4-9.2,3.7-13.3,1.3l7,4.1c4.1,2.4,9.2,1.1,13.3-1.3l206-118.9
							C698.3,403.1,708.4,389.4,708.3,377.4z"/>
						<path class="st9" d="M456.5,521.3l3.4-83.9c0-16.5,9.3-33.5,23.2-41.5L687.9,274c0.5-0.3,1.1-0.6,1.6-0.9
							c0.2-0.1,0.3-0.2,0.5-0.2c0.4-0.2,0.8-0.4,1.2-0.6c0.1-0.1,0.3-0.1,0.4-0.2c0.4-0.2,0.7-0.3,1.1-0.4c0.1,0,0.2-0.1,0.3-0.1
							c0.5-0.2,0.9-0.3,1.4-0.4c0.3-0.1,0.6-0.1,0.8-0.2c0.1,0,0.2-0.1,0.4-0.1c0.4-0.1,0.8-0.2,1.2-0.2c0.6-0.1,1.2-0.1,1.7-0.2
							c0.1,0,0.2,0,0.3,0c0.5,0,1,0,1.5,0c0.1,0,0.2,0,0.2,0c0.4,0,0.8,0.1,1.2,0.1c0.1,0,0.2,0,0.4,0.1c0.4,0.1,0.9,0.2,1.3,0.3
							c0,0,0,0,0,0c0.4,0.1,0.8,0.3,1.2,0.4c0.1,0,0.2,0.1,0.3,0.1c0.3,0.1,0.6,0.3,1,0.5c0.1,0.1,0.2,0.1,0.3,0.2l-7-4.1
							c0,0-0.1-0.1-0.1-0.1c-0.1,0-0.1-0.1-0.2-0.1c-0.3-0.2-0.6-0.3-1-0.5c-0.1,0-0.1-0.1-0.2-0.1c0,0-0.1,0-0.2-0.1
							c-0.4-0.2-0.8-0.3-1.2-0.4c0,0,0,0,0,0c0,0,0,0,0,0c-0.4-0.1-0.9-0.2-1.3-0.3c-0.1,0-0.1,0-0.2,0c-0.1,0-0.1,0-0.2,0
							c-0.4-0.1-0.8-0.1-1.2-0.1c-0.1,0-0.1,0-0.2,0c0,0,0,0-0.1,0c-0.5,0-1,0-1.5,0c-0.1,0-0.1,0-0.1,0c-0.1,0-0.1,0-0.2,0
							c-0.6,0-1.1,0.1-1.7,0.2c0,0,0,0,0,0c-0.4,0.1-0.8,0.1-1.1,0.2c-0.1,0-0.2,0.1-0.3,0.1c-0.3,0.1-0.5,0.1-0.8,0.2
							c0,0,0,0-0.1,0c-0.5,0.1-0.9,0.3-1.4,0.4c-0.1,0-0.2,0.1-0.3,0.1c-0.4,0.1-0.7,0.3-1.1,0.4c-0.1,0-0.1,0-0.2,0.1
							c-0.1,0-0.2,0.1-0.3,0.1c-0.4,0.2-0.8,0.4-1.2,0.6c-0.2,0.1-0.3,0.1-0.5,0.2c-0.5,0.3-1.1,0.6-1.6,0.9l-206,118.9
							c-14.2,8.2-25.7,28.2-25.7,44.4l0.2,83.9c0,8.1,2.9,13.8,7.5,16.5l7,4.1C459.4,535.1,456.5,529.4,456.5,521.3z"/>
					</g>
				</g>
				<g>
					<path class="st10" d="M687.9,274c14.2-8.2,25.8-1.6,25.8,14.7l0.2,83.9c0,16.3-11.5,36.2-25.7,44.4L482.3,536
						c-14.2,8.2-25.8,1.6-25.8-14.7l-0.2-83.9c0-16.3,11.5-36.2,25.7-44.4L687.9,274z M706.9,376.7l-0.2-83.9
						c0-11.8-8.4-16.6-18.7-10.7L481.9,401c-10.3,5.9-18.6,20.4-18.6,32.2l0.2,83.9c0,11.8,8.4,16.6,18.7,10.7l206-118.9
						C698.6,403,706.9,388.5,706.9,376.7"/>
				</g>
			</g>
			<g>
				<g class="st11">
					<g>
						<polygon class="st8" points="596.6,393.5 596.6,403.1 573.6,416.4 573.6,406.8 						"/>
					</g>
					<polygon class="st13" points="596.6,393.5 589.6,389.4 566.6,402.7 566.6,412.3 573.6,416.4 573.6,406.8 					"/>
				</g>
			</g>
			<g>
				<g>
					<g>
						<path class="st13" d="M514.7,471.6l13.7-32.6c0.1-0.3,0.2-0.6,0.3-0.8c0-0.1,0-0.1,0.1-0.2c0.2-0.4,0.4-0.8,0.5-1.2
							c0.1-0.1,0.1-0.2,0.1-0.3c0-0.1,0.1-0.2,0.1-0.2c0,0,0,0,0,0c0.1-0.2,0.2-0.4,0.3-0.6c0,0,0-0.1,0.1-0.1
							c0.1-0.2,0.2-0.3,0.2-0.5c0-0.1,0.1-0.2,0.1-0.2c3.4-8.3,6.2-14.8,6.2-23.1c0-4.1-0.6-7-1.8-8.5c-0.3-0.3-0.5-0.6-0.9-0.8
							l-7-4.1c0.3,0.2,0.6,0.4,0.9,0.8c1.2,1.5,1.8,4.4,1.8,8.5c0,9.2-3.7,17.1-7.1,25.1c-0.1,0.1-0.1,0.3-0.2,0.4
							c0,0.1-0.1,0.2-0.1,0.3c0,0.1-0.1,0.2-0.1,0.3c-0.1,0.1-0.1,0.3-0.2,0.4c-0.1,0.3-0.2,0.5-0.3,0.8l-19.1,45.4l0,8.1l7,4.1
							l0-8.1l5.1-12.1l6.6,3.9l23.8-13.8l-7-4.1L514.7,471.6z"/>
						<path class="st13" d="M503.1,422.4c0,0.2,0,0.4,0,0.7c0,0.9-0.1,1.8-0.1,2.7l0,3l7,4.1l0-3c0-0.9,0-1.8,0.1-2.7
							c0-0.2,0-0.4,0-0.7c0-0.8,0.1-1.7,0.2-2.5c0,0,0-0.1,0-0.1c0.1-0.8,0.2-1.6,0.3-2.5c0-0.2,0.1-0.5,0.1-0.7
							c0.1-0.6,0.2-1.3,0.3-1.9c0-0.2,0.1-0.4,0.1-0.6c0.1-0.4,0.2-0.8,0.3-1.2c0.1-0.5,0.2-1,0.4-1.4c0.2-0.7,0.4-1.3,0.6-2
							c0-0.1,0.1-0.2,0.1-0.3c0.2-0.7,0.5-1.5,0.8-2.2c0.1-0.2,0.1-0.3,0.2-0.5c0.3-0.7,0.6-1.4,0.9-2c0.4-0.7,0.7-1.5,1.2-2.2
							c0,0,0,0,0,0c0.4-0.7,0.8-1.3,1.3-2c0,0,0.1-0.1,0.1-0.1c0.4-0.6,0.8-1.1,1.3-1.7c0.1-0.2,0.3-0.3,0.4-0.5
							c0.3-0.4,0.6-0.7,0.9-1.1c0.3-0.3,0.5-0.6,0.8-0.9c0.3-0.3,0.7-0.7,1-1c0.3-0.2,0.5-0.5,0.8-0.7c0.4-0.3,0.8-0.7,1.2-1
							c0.3-0.2,0.5-0.4,0.8-0.6c0.5-0.3,0.9-0.7,1.4-1c0.2-0.2,0.5-0.3,0.7-0.5c0.7-0.5,1.5-0.9,2.2-1.4c0.6-0.4,1.2-0.7,1.8-1
							c0,0,0.1,0,0.1-0.1c0.6-0.3,1.1-0.5,1.6-0.8c0.1,0,0.2-0.1,0.2-0.1c0.4-0.2,0.7-0.3,1.1-0.4c0.1,0,0.1,0,0.2-0.1
							c0.3-0.1,0.6-0.2,0.9-0.3c0.1,0,0.2,0,0.3-0.1c0.5-0.1,0.9-0.2,1.4-0.3c0.1,0,0.1,0,0.2,0c0.3,0,0.6-0.1,0.9-0.1
							c0.1,0,0.1,0,0.2,0c0.3,0,0.6,0,0.9,0c0.1,0,0.1,0,0.2,0c0.2,0,0.4,0,0.6,0.1c0.1,0,0.2,0,0.3,0.1c0.2,0,0.3,0.1,0.5,0.1
							c0.1,0,0.2,0.1,0.3,0.1c0.1,0,0.3,0.1,0.4,0.1c0.1,0,0.2,0.1,0.3,0.1c0.2,0.1,0.3,0.1,0.4,0.2c0.1,0,0.2,0.1,0.2,0.1l-7-4.1
							c0,0,0,0-0.1,0c-0.1,0-0.1-0.1-0.2-0.1c-0.1-0.1-0.3-0.2-0.4-0.2c0,0-0.1,0-0.1,0c-0.1,0-0.1,0-0.2-0.1
							c-0.1-0.1-0.3-0.1-0.4-0.1c0,0-0.1,0-0.1,0c-0.1,0-0.1,0-0.2,0c-0.1,0-0.3-0.1-0.5-0.1c-0.1,0-0.1,0-0.2,0c0,0-0.1,0-0.1,0
							c-0.2,0-0.4-0.1-0.6-0.1c-0.1,0-0.1,0-0.2,0c0,0,0,0,0,0c-0.3,0-0.6,0-0.9,0c0,0,0,0-0.1,0c0,0-0.1,0-0.1,0
							c-0.3,0-0.6,0-0.9,0.1c-0.1,0-0.1,0-0.1,0c0,0-0.1,0-0.1,0c-0.4,0.1-0.9,0.2-1.4,0.3c0,0-0.1,0-0.1,0c0,0-0.1,0-0.1,0
							c-0.3,0.1-0.6,0.2-0.9,0.3c-0.1,0-0.1,0-0.2,0.1c-0.4,0.1-0.7,0.3-1.1,0.4c0,0-0.1,0-0.1,0c0,0-0.1,0-0.1,0.1
							c-0.5,0.2-1.1,0.5-1.7,0.8c0,0-0.1,0-0.1,0.1c-0.6,0.3-1.2,0.6-1.8,1c-0.8,0.4-1.5,0.9-2.2,1.4c-0.2,0.2-0.5,0.3-0.7,0.5
							c-0.5,0.3-0.9,0.7-1.4,1c-0.3,0.2-0.5,0.4-0.8,0.6c-0.4,0.3-0.8,0.6-1.2,1c-0.3,0.2-0.5,0.5-0.8,0.7c-0.2,0.2-0.5,0.4-0.7,0.6
							c-0.1,0.1-0.2,0.2-0.3,0.3c-0.3,0.3-0.6,0.6-0.8,0.9c-0.2,0.2-0.4,0.4-0.6,0.6c-0.1,0.2-0.3,0.3-0.4,0.5
							c-0.1,0.2-0.3,0.3-0.4,0.5c-0.1,0.1-0.2,0.3-0.3,0.4c-0.3,0.4-0.6,0.8-0.9,1.2c0,0,0,0.1-0.1,0.1c0,0-0.1,0.1-0.1,0.1
							c-0.2,0.3-0.4,0.6-0.6,0.9c-0.2,0.4-0.4,0.7-0.7,1.1c0,0,0,0,0,0c0,0,0,0,0,0c-0.2,0.3-0.4,0.7-0.6,1
							c-0.2,0.4-0.4,0.7-0.6,1.1c0,0,0,0,0,0c-0.2,0.5-0.4,0.9-0.6,1.4c-0.1,0.2-0.2,0.4-0.3,0.7c-0.1,0.2-0.1,0.3-0.2,0.5
							c-0.1,0.1-0.1,0.3-0.2,0.4c-0.2,0.6-0.4,1.1-0.6,1.7c0,0,0,0,0,0c0,0.1-0.1,0.2-0.1,0.3c-0.2,0.6-0.4,1.1-0.5,1.7
							c0,0.1,0,0.2-0.1,0.3c-0.1,0.5-0.2,1-0.4,1.4c-0.1,0.3-0.2,0.6-0.2,1c0,0.1,0,0.2-0.1,0.3c0,0.2-0.1,0.4-0.1,0.6
							c-0.1,0.6-0.2,1.2-0.3,1.9c0,0.2-0.1,0.5-0.1,0.7c0,0.2-0.1,0.3-0.1,0.5c-0.1,0.6-0.2,1.3-0.2,1.9c0,0,0,0.1,0,0.1
							C503.2,420.7,503.1,421.6,503.1,422.4z"/>
						<path class="st13" d="M650.8,389.9c0-0.2,0-0.4,0-0.6c0-0.4,0-0.8,0.1-1.2c0-0.2,0-0.4,0-0.6c0-0.6,0-1.2,0-1.8l-0.1-37.5
							c0-4.9-0.6-8.5-1.8-10.7c-0.3-0.6-0.8-1.1-1.3-1.4l-7-4.1c0.5,0.3,0.9,0.7,1.3,1.4c1.2,2.2,1.8,5.7,1.8,10.7l0.1,37.5
							c0,0.6,0,1.2,0,1.8c0,0.2,0,0.4,0,0.6c0,0.4,0,0.8-0.1,1.2c0,0.2,0,0.4,0,0.6c0,0.4-0.1,0.7-0.1,1.1c0,0.2,0,0.4-0.1,0.6
							c0,0.4-0.1,0.7-0.1,1.1c0,0.2,0,0.4-0.1,0.5c-0.1,0.4-0.1,0.8-0.2,1.3c0,0.1,0,0.2,0,0.2c0,0.1-0.1,0.2-0.1,0.4
							c-0.1,0.4-0.2,0.9-0.3,1.3c-0.2,0.9-0.5,1.8-0.9,2.6c0,0.1-0.1,0.2-0.1,0.3c-0.2,0.4-0.3,0.7-0.5,1.1c0,0,0,0.1-0.1,0.1
							c-0.2,0.4-0.4,0.7-0.6,1.1c0,0,0,0,0,0c-0.2,0.4-0.4,0.7-0.7,1c0,0,0,0,0,0c-0.2,0.3-0.4,0.6-0.7,0.9
							c-0.1,0.1-0.1,0.1-0.2,0.2c-0.2,0.2-0.3,0.4-0.5,0.6c-0.1,0.1-0.2,0.2-0.3,0.3c-0.1,0.1-0.2,0.2-0.3,0.2
							c-0.3,0.3-0.6,0.6-1,0.8c-0.1,0.1-0.2,0.2-0.3,0.3c-0.4,0.3-0.8,0.6-1.3,0.9c-0.3,0.1-0.5,0.3-0.7,0.4c-0.1,0-0.2,0.1-0.2,0.1
							c-0.1,0.1-0.3,0.1-0.4,0.2c-0.3,0.1-0.5,0.2-0.7,0.3c0,0-0.1,0-0.1,0c-0.1,0-0.1,0-0.2,0c-0.2,0-0.3,0.1-0.5,0.1
							c-0.1,0-0.1,0-0.2,0c-0.2,0-0.3,0-0.5,0c-0.1,0-0.1,0-0.2,0c-0.2,0-0.4,0-0.5,0c0,0,0,0,0,0c-0.2,0-0.3-0.1-0.5-0.1
							c0,0-0.1,0-0.1,0c-0.2-0.1-0.3-0.1-0.5-0.2c0,0,0,0,0,0l0,0c0,0,0,0,0,0l7,4.1c0,0,0,0,0,0c0.1,0.1,0.2,0.1,0.4,0.2
							c0,0,0.1,0,0.1,0c0,0,0.1,0,0.1,0c0,0,0.1,0,0.1,0.1c0.1,0,0.2,0.1,0.4,0.1c0,0,0,0,0,0c0,0,0,0,0,0c0.1,0,0.3,0,0.4,0
							c0,0,0.1,0,0.1,0c0.1,0,0.1,0,0.2,0c0.1,0,0.1,0,0.2,0c0.1,0,0.2,0,0.3,0c0.1,0,0.1,0,0.2,0c0,0,0,0,0.1,0
							c0.1,0,0.3-0.1,0.4-0.1c0.1,0,0.1,0,0.2,0c0,0,0,0,0,0c0,0,0.1,0,0.1,0c0.2-0.1,0.5-0.2,0.7-0.3c0,0,0.1,0,0.1,0
							c0.1,0,0.2-0.1,0.3-0.2c0.1,0,0.2-0.1,0.2-0.1c0.2-0.1,0.5-0.3,0.7-0.4c0.4-0.3,0.9-0.6,1.3-0.9c0.1-0.1,0.2-0.2,0.3-0.3
							c0.3-0.3,0.6-0.5,1-0.8c0.1-0.1,0.1-0.1,0.2-0.2c0,0,0.1-0.1,0.1-0.1c0.1-0.1,0.2-0.2,0.3-0.3c0.1-0.1,0.3-0.3,0.4-0.4
							c0.1-0.1,0.1-0.1,0.1-0.2c0.1-0.1,0.1-0.1,0.2-0.2c0.1-0.1,0.1-0.2,0.2-0.3c0.2-0.2,0.3-0.4,0.4-0.6c0,0,0,0,0,0c0,0,0,0,0,0
							c0.1-0.2,0.2-0.3,0.3-0.5c0.1-0.2,0.2-0.4,0.3-0.5c0,0,0,0,0,0c0,0,0,0,0,0c0.1-0.2,0.2-0.4,0.3-0.6c0.1-0.2,0.2-0.3,0.2-0.5
							c0,0,0-0.1,0.1-0.1c0,0,0,0,0-0.1c0.1-0.2,0.2-0.5,0.3-0.7c0-0.1,0.1-0.2,0.1-0.3c0-0.1,0.1-0.2,0.1-0.3
							c0-0.1,0.1-0.2,0.1-0.3c0.1-0.3,0.2-0.6,0.3-1c0.1-0.4,0.3-0.8,0.4-1.2c0,0,0-0.1,0-0.1c0.1-0.4,0.2-0.8,0.3-1.3
							c0-0.1,0.1-0.2,0.1-0.3c0,0,0,0,0,0c0-0.1,0-0.2,0-0.2c0.1-0.4,0.2-0.8,0.2-1.2c0-0.2,0.1-0.4,0.1-0.5c0-0.2,0.1-0.4,0.1-0.7
							c0-0.1,0-0.2,0-0.4c0-0.2,0-0.4,0.1-0.6C650.8,390.6,650.8,390.3,650.8,389.9z"/>
						<path class="st13" d="M623.7,401.3l-0.1-37.3c0-0.9,0-1.7,0.1-2.6c0-0.2,0-0.4,0-0.6c0-0.8,0.1-1.7,0.2-2.5c0-0.1,0-0.2,0-0.4
							c0.1-0.7,0.2-1.4,0.3-2.1c0-0.2,0.1-0.5,0.1-0.7c0.1-0.8,0.3-1.6,0.4-2.4c0.2-0.9,0.4-1.8,0.7-2.7c0.2-0.8,0.5-1.6,0.7-2.4
							c0.1-0.2,0.1-0.3,0.2-0.5c0.2-0.6,0.4-1.2,0.7-1.8c0.1-0.2,0.2-0.4,0.2-0.6c0.3-0.7,0.6-1.4,1-2.1c0.4-0.8,0.8-1.5,1.2-2.2
							c0,0,0-0.1,0-0.1c0.4-0.7,0.8-1.3,1.3-2c0.1-0.1,0.1-0.2,0.2-0.3c0.4-0.6,0.9-1.2,1.3-1.8c0.1-0.2,0.3-0.3,0.4-0.5
							c0.3-0.4,0.7-0.8,1-1.1c0.3-0.3,0.6-0.6,0.9-0.9c0.3-0.3,0.7-0.7,1-1c0.2-0.2,0.5-0.5,0.7-0.7c0.4-0.3,0.8-0.7,1.2-1
							c0.2-0.2,0.5-0.4,0.7-0.6c0.4-0.3,0.9-0.7,1.4-1c0.2-0.2,0.4-0.3,0.7-0.5c0.7-0.5,1.4-0.9,2.2-1.4c0.6-0.3,1.2-0.7,1.7-0.9
							c0.1,0,0.1-0.1,0.2-0.1c0.5-0.3,1.1-0.5,1.6-0.7c0.1,0,0.2-0.1,0.3-0.1c0.4-0.1,0.7-0.3,1.1-0.4c0,0,0,0,0,0
							c0.4-0.1,0.7-0.2,1-0.3c0.1,0,0.2,0,0.2-0.1c0.5-0.1,0.9-0.2,1.4-0.3c0.1,0,0.1,0,0.2,0c0.3,0,0.6-0.1,0.9-0.1
							c0.1,0,0.2,0,0.2,0c0.3,0,0.6,0,0.9,0c0,0,0.1,0,0.1,0c0.2,0,0.5,0,0.7,0.1c0.1,0,0.2,0,0.3,0.1c0.2,0,0.3,0.1,0.5,0.1
							c0.1,0,0.2,0.1,0.3,0.1c0.1,0,0.3,0.1,0.4,0.2c0.1,0,0.2,0.1,0.3,0.1c0.2,0.1,0.3,0.1,0.5,0.2c0.1,0,0.2,0.1,0.2,0.1l-7-4.1
							c0,0-0.1,0-0.1,0c0,0-0.1,0-0.2-0.1c-0.2-0.1-0.3-0.2-0.5-0.2c0,0-0.1,0-0.1,0c-0.1,0-0.1,0-0.2-0.1c-0.1-0.1-0.3-0.1-0.4-0.2
							c0,0-0.1,0-0.1,0c0,0-0.1,0-0.1,0c-0.2,0-0.3-0.1-0.5-0.1c-0.1,0-0.1,0-0.2,0c0,0-0.1,0-0.1,0c-0.2,0-0.4-0.1-0.7-0.1
							c0,0-0.1,0-0.1,0c0,0,0,0,0,0c-0.3,0-0.6,0-0.9,0c0,0-0.1,0-0.1,0c0,0-0.1,0-0.1,0c-0.3,0-0.6,0-0.9,0.1c0,0-0.1,0-0.1,0
							c0,0,0,0-0.1,0c-0.4,0.1-0.9,0.2-1.4,0.3c0,0-0.1,0-0.1,0c0,0-0.1,0-0.1,0c-0.3,0.1-0.7,0.2-1,0.3c0,0,0,0,0,0
							c-0.4,0.1-0.7,0.3-1.1,0.4c0,0-0.1,0-0.1,0c0,0-0.1,0-0.1,0.1c-0.5,0.2-1,0.5-1.6,0.7c-0.1,0-0.1,0.1-0.2,0.1
							c-0.6,0.3-1.1,0.6-1.7,0.9c-0.7,0.4-1.5,0.9-2.2,1.4c-0.2,0.2-0.4,0.3-0.7,0.5c-0.5,0.3-0.9,0.7-1.4,1
							c-0.3,0.2-0.5,0.4-0.7,0.6c-0.4,0.3-0.8,0.6-1.2,1c-0.2,0.2-0.5,0.4-0.7,0.7c-0.2,0.2-0.4,0.4-0.6,0.5
							c-0.1,0.1-0.3,0.3-0.4,0.4c-0.3,0.3-0.6,0.6-0.9,0.9c-0.2,0.2-0.3,0.3-0.5,0.5c-0.2,0.2-0.3,0.4-0.5,0.6
							c-0.1,0.2-0.3,0.3-0.4,0.5c-0.1,0.1-0.2,0.2-0.3,0.3c-0.3,0.4-0.6,0.8-0.9,1.3c0,0.1-0.1,0.1-0.1,0.2
							c-0.1,0.1-0.1,0.2-0.2,0.3c-0.2,0.3-0.3,0.5-0.5,0.8c-0.2,0.4-0.5,0.8-0.7,1.2c0,0,0,0,0,0c0,0,0,0.1,0,0.1
							c-0.2,0.4-0.4,0.7-0.6,1.1c-0.2,0.4-0.4,0.8-0.6,1.2c0,0,0,0.1,0,0.1c-0.2,0.5-0.5,1-0.7,1.6c-0.1,0.2-0.1,0.3-0.2,0.5
							c-0.1,0.2-0.2,0.4-0.2,0.6c-0.1,0.2-0.2,0.4-0.3,0.6c-0.1,0.4-0.3,0.8-0.4,1.2c-0.1,0.2-0.1,0.3-0.2,0.5c0,0.1,0,0.1-0.1,0.2
							c-0.2,0.7-0.5,1.4-0.7,2.2c0,0,0,0,0,0c-0.2,0.9-0.5,1.8-0.7,2.7c0,0,0,0,0,0c-0.2,0.8-0.3,1.6-0.4,2.4c0,0.2-0.1,0.5-0.1,0.7
							c0,0.3-0.1,0.6-0.1,0.8c-0.1,0.4-0.1,0.8-0.1,1.3c0,0.1,0,0.2,0,0.4c-0.1,0.8-0.1,1.7-0.2,2.5c0,0.2,0,0.4,0,0.6
							c0,0.9-0.1,1.7-0.1,2.6l0.1,37.3c0,7.8,1.6,13.1,4.8,15.9c0.4,0.3,0.8,0.6,1.2,0.9l7,4.1c-0.4-0.2-0.8-0.5-1.2-0.9
							C625.3,414.4,623.7,409.1,623.7,401.3z"/>
					</g>
				</g>
				<g>
					<path class="st8" d="M528.4,394c6-3.4,10.5-4.1,13.5-2c3.1,2.1,4.6,6.8,4.6,13.9c0,3.5-0.3,6.8-1,10c-0.7,3.2-1.6,6-2.5,8.6
						c-1,2.6-2.5,6.3-4.6,11.2l-17.2,40.4l23.8-13.8l0,9.6l-35.5,20.5l0-8.1l19.1-45.4c0.9-2.2,1.5-3.7,1.9-4.3
						c2.2-5.2,3.7-9.5,4.7-12.7c1-3.2,1.5-6.7,1.5-10.4c0-4.1-0.6-7-1.8-8.5c-1.2-1.5-3.1-1.5-5.8,0c-6,3.4-8.9,10.5-8.9,21.1l0,2.9
						l-10,5.7l0-3c0-8.1,1.4-15.2,4.3-21.2C517.3,402.6,521.9,397.7,528.4,394z"/>
				</g>
				<g>
					<path class="st8" d="M656.3,326.5c3.1,2.8,4.6,8.1,4.7,16l0.1,37.3c0,7.8-1.5,15-4.6,21.3c-3.1,6.4-7.7,11.4-13.9,15
						c-6.2,3.6-10.9,4-14,1.1c-3.1-2.8-4.7-8.1-4.8-15.9l-0.1-37.3c0-7.9,1.5-15,4.6-21.3c3.1-6.3,7.8-11.3,14.1-14.9
						C648.5,324.1,653.2,323.7,656.3,326.5z M651,385.7l-0.1-37.5c0-4.9-0.6-8.5-1.8-10.7c-1.2-2.2-3.5-2.3-6.8-0.4
						c-3.3,1.9-5.6,4.7-6.8,8.3c-1.2,3.6-1.8,7.9-1.8,12.8l0.1,37.5c0,10.7,2.9,14.4,8.7,11C648.2,403.4,651,396.4,651,385.7"/>
				</g>
			</g>
		</g>
		<g>
			<g class="st11">
				<g>
					<polygon class="st14" points="1973.4,1064.1 1089.7,550.5 1089.6,510.7 1973.3,1024.3 					"/>
				</g>
				<g>
					<polygon class="st15" points="1973.3,1024.3 1089.6,510.7 1124.2,490.7 2007.9,1004.3 					"/>
				</g>
				<g>
					<polygon class="st14" points="2007.9,1004.3 1124.2,490.7 1124.1,450.9 2007.8,964.5 					"/>
				</g>
				<g>
					<polygon class="st15" points="2007.8,964.5 1124.1,450.9 1158.8,430.9 2042.5,944.5 					"/>
				</g>
				<g>
					<polygon class="st15" points="2042.3,904.7 1158.6,391.1 1193.3,371.1 2077,884.7 					"/>
				</g>
				<g>
					<polygon class="st14" points="2042.5,944.5 1158.8,430.9 1158.6,391.1 2042.3,904.7 					"/>
				</g>
				<g>
					<polygon class="st14" points="2077,884.7 1193.3,371.1 1193.2,331.3 2076.9,844.9 					"/>
				</g>
				<g>
					<polygon class="st15" points="2076.9,844.9 1193.2,331.3 1227.8,311.3 2111.5,824.9 					"/>
				</g>
				<g>
					<polygon class="st15" points="2111.4,785 1227.7,271.5 1262.3,251.5 2146,765 					"/>
				</g>
				<g>
					<polygon class="st14" points="2111.5,824.9 1227.8,311.3 1227.7,271.5 2111.4,785 					"/>
				</g>
				<g>
					<polygon class="st16" points="2146,765 2146.6,964.1 1973.4,1064.1 1973.3,1024.3 2007.9,1004.3 2007.8,964.5 2042.5,944.5 
						2042.3,904.7 2077,884.7 2076.9,844.9 2111.5,824.9 2111.4,785 					"/>
				</g>
			</g>
		</g>
		<g>
			<g class="st11">
				<g>
					<polygon class="st15" points="1148.1,1500.7 264.4,987.1 299,967.1 1182.8,1480.7 					"/>
				</g>
				<g>
					<polygon class="st15" points="1113.4,1480.9 229.7,967.3 264.3,947.3 1148,1460.9 					"/>
				</g>
				<g>
					<polygon class="st15" points="1078.6,1461.1 194.9,947.5 229.5,927.5 1113.2,1441.1 					"/>
				</g>
				<g>
					<polygon class="st15" points="1043.8,1441.3 160.1,927.7 194.8,907.7 1078.5,1421.3 					"/>
				</g>
				<g>
					<polygon class="st16" points="1043.7,1401.5 1043.8,1441.3 1078.5,1421.3 1078.6,1461.1 1113.2,1441.1 1113.4,1480.9 
						1148,1460.9 1148.1,1500.7 1182.8,1480.7 1182.9,1520.5 1009.7,1620.5 1009.1,1421.5 					"/>
				</g>
				<g>
					<polygon class="st14" points="1009.7,1620.5 126,1107 125.4,907.9 1009.1,1421.5 					"/>
				</g>
				<g>
					<polygon class="st15" points="1009.1,1421.5 125.4,907.9 160,887.9 1043.7,1401.5 					"/>
				</g>
			</g>
		</g>
	</g>
</g>
</svg>
