<?xml version="1.0" encoding="utf-8"?><svg version="1.1" id="Layer_1" xmlns="http://www.w3.org/2000/svg" xmlns:xlink="http://www.w3.org/1999/xlink" x="0px" y="0px" viewBox="0 0 111.94 122.88" style="enable-background:new 0 0 111.94 122.88" xml:space="preserve"><style type="text/css">.st0{fill-rule:evenodd;clip-rule:evenodd;} .st1{fill-rule:evenodd;clip-rule:evenodd;fill:#E6A10A;} .st2{fill-rule:evenodd;clip-rule:evenodd;fill:#FFB517;} .st3{fill-rule:evenodd;clip-rule:evenodd;fill:#96223B;} .st4{fill-rule:evenodd;clip-rule:evenodd;fill:#EECD65;}</style><g><path class="st0" d="M77.05,25.63c0.04,0,0,0-0.18-0.07C76.57,25.44,76.82,25.55,77.05,25.63L77.05,25.63L77.05,25.63z"/><path class="st0" d="M84.64,41.12c0.15,0.26,0.29,0.55,0.37,0.85l4.02,9.66c1.92,0.66,4.09,1.92,6.05,3.58 c1.99,1.7,3.84,3.87,5.09,6.38l0.15,0.37l11.29,42.16l0.04,0.11c0.52,2.47,0.33,4.57-0.55,6.27c-0.96,1.77-2.58,2.95-4.98,3.58 l-21.5,5.75c-2.47,1.03-4.61,0.88-6.38-0.22c-1.7-1.03-2.95-2.88-3.84-5.35l-0.04-0.15L63.11,72.1l-0.04-0.7 c0.22-2.51,0.48-5.05,1.11-7.45c0.59-2.21,1.51-4.2,2.99-5.83l-2.4-21.58l-1.55-1.4l-0.59-0.96l-1.29-4.76 c-0.18-0.66-0.15-0.52-0.11-0.44c-0.33-1.18-0.48-1.7,0.18-2.62c0.52-0.77,1.03-0.88,1.95-1.07l0.74-0.18l11.1-2.99 c0.44-0.11,0.7-0.22,0.92-0.3c0.81-0.26,1.29-0.44,2.1-0.15c1.25,0.44,1.44,1.11,1.84,2.69l1.29,4.79l0.04,0.88l-0.37,2.03 l3.73,8.93L84.64,41.12L84.64,41.12L84.64,41.12z"/><polygon class="st1" points="69.15,40.78 79.88,40.12 76.97,33.11 76.86,32 77.27,29.82 76.23,26 76.08,26.04 65.24,28.95 66.24,32.64 67.9,34.15 68.56,35.4 69.15,40.78 69.15,40.78 69.15,40.78"/><path class="st2" d="M66.94,10.76c-0.29,1.44-1.73,2.36-3.17,2.03c-1.44-0.29-2.36-1.73-2.03-3.17L63.4,2.1 c0.3-1.44,1.73-2.36,3.17-2.03c1.44,0.29,2.36,1.73,2.03,3.17L66.94,10.76L66.94,10.76L66.94,10.76z"/><path class="st2" d="M53.52,9.51c0.37,1.44-0.52,2.88-1.95,3.21c-1.44,0.37-2.88-0.52-3.21-1.95l-1.85-7.46 c-0.37-1.44,0.52-2.88,1.95-3.21c1.44-0.37,2.88,0.52,3.21,1.95L53.52,9.51L53.52,9.51L53.52,9.51z"/><path class="st2" d="M41.93,14.01c1.22,0.81,1.59,2.43,0.77,3.69c-0.81,1.22-2.43,1.59-3.69,0.77l-6.45-4.2 c-1.22-0.81-1.59-2.43-0.77-3.69c0.81-1.22,2.43-1.59,3.69-0.77L41.93,14.01L41.93,14.01L41.93,14.01L41.93,14.01z"/><path class="st2" d="M77.38,16.22c-0.85,1.18-2.54,1.44-3.73,0.59c-1.18-0.85-1.44-2.54-0.59-3.73l4.5-6.23 c0.85-1.18,2.54-1.44,3.73-0.59c1.18,0.85,1.44,2.54,0.59,3.73L77.38,16.22L77.38,16.22L77.38,16.22z"/><path class="st0" d="M34.89,27.99c-0.04,0,0,0,0.18-0.07C35.37,27.8,35.11,27.91,34.89,27.99L34.89,27.99L34.89,27.99z"/><path class="st0" d="M27.29,43.48c-0.15,0.26-0.29,0.55-0.37,0.85l-4.02,9.66c-1.92,0.66-4.09,1.92-6.05,3.58 c-1.99,1.7-3.84,3.87-5.09,6.38l-0.15,0.37L0.33,106.47l-0.04,0.11c-0.52,2.47-0.33,4.57,0.55,6.27c0.96,1.77,2.58,2.95,4.98,3.58 l21.5,5.75c2.47,1.03,4.61,0.89,6.38-0.22c1.7-1.03,2.95-2.88,3.84-5.35l0.04-0.15l11.25-42.01l0.04-0.7 c-0.22-2.51-0.48-5.05-1.11-7.45c-0.59-2.21-1.51-4.2-2.99-5.83l2.4-21.58l1.55-1.4l0.59-0.96l1.29-4.76 c0.18-0.66,0.15-0.52,0.11-0.44c0.33-1.18,0.48-1.7-0.18-2.62c-0.52-0.77-1.03-0.89-1.95-1.07l-0.74-0.18l-11.1-2.99 c-0.44-0.11-0.7-0.22-0.92-0.3c-0.81-0.26-1.29-0.44-2.1-0.15c-1.25,0.44-1.44,1.11-1.84,2.69l-1.29,4.79l-0.04,0.88l0.37,2.03 l-3.73,8.93L27.29,43.48L27.29,43.48L27.29,43.48z"/><polygon class="st1" points="42.78,43.15 32.05,42.49 34.96,35.48 35.07,34.37 34.66,32.19 35.69,28.35 35.84,28.39 46.68,31.3 45.68,34.99 44.02,36.5 43.36,37.75 42.78,43.15 42.78,43.15 42.78,43.15"/><path class="st0" d="M50.82,31.42C50.82,31.45,50.82,31.45,50.82,31.42L50.82,31.42L50.82,31.42L50.82,31.42z"/><path class="st0" d="M61.19,29.02C61.19,29.06,61.19,29.06,61.19,29.02L61.19,29.02L61.19,29.02L61.19,29.02z"/><path class="st3" d="M107.1,102.86l-29.58,7.93l0.59,2.25c0.59,1.59,1.29,2.69,2.14,3.21c0.7,0.44,1.66,0.41,2.91-0.11l0.26-0.11 l21.61-5.79c1.25-0.33,2.07-0.85,2.47-1.62c0.44-0.81,0.48-1.95,0.18-3.43l-0.63-2.32L107.1,102.86L107.1,102.86L107.1,102.86z"/><polygon class="st4" points="97.81,68.22 68.23,76.15 76.12,105.62 105.7,97.69 97.81,68.22 97.81,68.22"/><path class="st3" d="M67.01,70.95l29.39-7.89c-1-1.88-2.43-3.54-3.95-4.83c-1.84-1.59-3.84-2.66-5.46-3.06l-0.96-0.26l-0.37-0.92 l-3.61-8.7l-12.32,0.74l1.4,12.58l0.11,1l-0.77,0.7c-1.25,1.14-2.03,2.8-2.54,4.68c-0.48,1.84-0.74,3.87-0.92,5.94V70.95 L67.01,70.95L67.01,70.95z"/><path class="st3" d="M4.83,105.22l29.58,7.93l-0.59,2.25c-0.59,1.59-1.29,2.69-2.14,3.21c-0.7,0.44-1.66,0.41-2.91-0.11l-0.26-0.11 L6.9,112.6c-1.25-0.33-2.07-0.85-2.47-1.62c-0.44-0.81-0.48-1.95-0.18-3.43l0.63-2.32L4.83,105.22L4.83,105.22L4.83,105.22z"/><polygon class="st4" points="14.13,70.59 43.71,78.52 35.82,107.99 6.24,100.06 14.13,70.59 14.13,70.59"/><path class="st3" d="M44.92,73.31l-29.39-7.89c1-1.88,2.43-3.54,3.95-4.83c1.84-1.59,3.84-2.66,5.46-3.06l0.96-0.26l0.37-0.92 l3.61-8.7l12.32,0.74l-1.4,12.58l-0.11,1l0.77,0.7c1.25,1.14,2.03,2.8,2.54,4.68c0.48,1.84,0.74,3.87,0.92,5.94V73.31L44.92,73.31 L44.92,73.31z"/><path class="st1" d="M27.88,78.44c-6.38-1.7-12.91,2.07-14.61,8.45c-1.7,6.38,2.07,12.91,8.45,14.6c6.38,1.7,12.91-2.07,14.6-8.45 C38.03,86.67,34.26,80.14,27.88,78.44L27.88,78.44L27.88,78.44z"/><path class="st1" d="M84.09,76.04c6.38-1.7,12.91,2.07,14.61,8.45c1.7,6.38-2.07,12.91-8.45,14.61c-6.38,1.7-12.91-2.07-14.6-8.45 C73.95,84.27,77.71,77.74,84.09,76.04L84.09,76.04L84.09,76.04z"/><polygon class="st3" points="26.7,82.87 23.31,87.33 17.78,86.3 20.99,90.91 18.3,95.85 23.68,94.23 27.52,98.32 27.63,92.71 32.72,90.31 27.41,88.47 26.71,82.9 26.7,82.87 26.7,82.87"/><polygon class="st3" points="85.27,80.51 88.66,84.97 94.19,83.94 90.98,88.55 93.67,93.49 88.29,91.87 84.45,95.96 84.34,90.35 79.25,87.95 84.56,86.11 85.26,80.54 85.27,80.51 85.27,80.51"/></g></svg>