<?xml version="1.0" encoding="UTF-8"?>
<svg viewBox="0 0 744.09448819 1052.3622047" xmlns="http://www.w3.org/2000/svg">
 <defs>
  <linearGradient id="a" x1="81.635" x2="461.33" gradientUnits="userSpaceOnUse">
   <stop stop-color="#dcdcdc" offset="0"/>
   <stop stop-color="#fff" offset="1"/>
  </linearGradient>
  <linearGradient id="b" x1="411.39" x2="696.89" gradientUnits="userSpaceOnUse">
   <stop stop-color="#fff" offset="0"/>
   <stop stop-color="#dcdcdc" offset="1"/>
  </linearGradient>
  <linearGradient id="c" x1="-104.77" x2="120.56" gradientUnits="userSpaceOnUse">
   <stop stop-color="#fdfdfd" offset="0"/>
   <stop stop-color="#d4d4d4" offset="1"/>
  </linearGradient>
 </defs>
 <path d="m221.73 379.87v-36.818c0-12.805-55.439-108.57-64.9-112.81s-60.347-5.6559-60.347-5.6559v9.3934s50.533-1.5971 57.036 3.8641c7.811 6.5587 53.183 89.059 59.493 103.42 2.4513 5.5809 0.99751 40.246 0.99751 40.246l7.7196-1.639z" fill="#9c9ea1" stroke="#231f20" stroke-width="2.7096"/>
 <path transform="matrix(.67811 0 0 .67672 139.53 95.393)" d="m-101.14 435.93-3.628 35.761 225.33-47.917v-8.873z" fill="url(#c)" stroke="#231f20" stroke-width="5"/>
 <path d="m80.288 407.57c-1.6451 6.3652-18.44 8.4989-18.44 8.4989l18.821-185.15s0.92832-4.4182 4.1574-5.0171l9.0222-1.6722-11.893 175.85c6.1e-4 -6.4e-4 -0.38762 2.5411-1.6675 7.494z" fill="#fff" stroke="#231f20" stroke-width="3.3871"/>
 <path d="m223.82 382.31c5.5164-1.1701 363.6 4.9657 363.6 4.9657l23.402-10.377s-383.77-0.42604-388.82-0.73281c0-7.4e-4 -0.92702 6.7292 1.824 6.1446z" fill="#cccbcb" stroke="#231f20" stroke-width="3.3871"/>
 <path d="m459.76 186.68s47.276 6.1919 60.255 11.966c11.814 5.2547 73.038 115.45 81.034 133.65 3.1058 7.0704 1.2633 50.991 1.2633 50.991l9.781-2.0754v-46.649c0-16.224-66.808-132.09-83.545-144.39-17.646-12.971-67.225-17.327-67.225-17.327" fill="#e8e6e4" stroke="#231f20" stroke-width="3.3871"/>
 <path transform="matrix(.67811 0 0 .67672 139.53 95.393)" d="m411.39 483.07 285.5-60.71v-11.241l-280.9 26.645-4.595 45.306" fill="url(#b)" stroke="#231f20" stroke-width="6"/>
 <path d="m128.73 231.63 19.808-1.7364 12.508 2.7705s-13.384-3.5548-9.0812 3.3688c1.7631 2.8354-23.235-4.4028-23.235-4.4028z" fill="#010101"/>
 <g transform="matrix(.67811 0 0 .67672 139.53 95.393)" fill="none" stroke="#9c9ea1">
  <path d="m480.36 421.43 19.719-260.23"/>
  <path d="m500.08 421.43 18.401-258.13"/>
  <path d="m538.48 169.5-19.998 245.66"/>
  <path d="m542.76 415.51 12.061-246"/>
  <path d="m566.05 413.3 10.207-227.36"/>
  <path d="m585.93 411.41 9.196-195.06"/>
  <path d="m606.26 409.48 6.505-162.68"/>
  <path d="m628.71 407.35 5.818-121.52"/>
  <path d="m646.61 405.66 5.952-86.338"/>
  <path d="m480.36 174.17 95.902 11.772"/>
  <path d="m475.36 205.24 119.77 11.112"/>
  <path d="m480.36 246.8 136.02 6.388"/>
  <path d="m469.92 285.84h164.61"/>
  <path d="m469.92 334.34 187.25-6.198"/>
  <path d="m464.3 369.16 204.56-6.668"/>
  <path d="m468.44 400 200.74-10.109"/>
 </g>
 <path d="m69.425 382.31" fill="none" stroke="#231f20" stroke-width="1.3548"/>
 <path d="m418.5 422.29s21.28-2.7015 23.365-10.768c1.6207-6.2739 2.1137-9.4936 2.1137-9.4936l15.068-222.8-16.399-2.0301-24.147 245.09" fill="#fff" stroke="#231f20" stroke-width="5.4193"/>
 <path d="m461.33 172.84s-368.62 52.885-373.61 52.802c-10.227-0.17006-5.6418 11.686-0.12749 10.905 5.515-0.7803 372.18-49.877 372.18-49.877l1.5644-13.831" fill="url(#a)" stroke="#231f20" stroke-width="3.3871"/>
 <path d="m188.19 236.59c55.777 86.107 48.996 67.159 55.777 86.107s2.7124 43.382 2.7124 43.382" fill="none" stroke="#9c9ea1" stroke-width=".67741"/>
 <path d="m208.35 235c55.777 86.106 48.996 67.158 55.777 86.106s2.7124 43.381 2.7124 43.381" fill="none" stroke="#9c9ea1" stroke-width=".67741"/>
 <path d="m238.2 235c55.777 86.107 48.996 67.159 55.777 86.107s2.7124 43.381 2.7124 43.381" fill="none" stroke="#9c9ea1" stroke-width=".67741"/>
 <path d="m268.72 224.61c55.777 94.049 48.996 73.353 55.777 94.049s2.7124 47.382 2.7124 47.382" fill="none" stroke="#9c9ea1" stroke-width=".67741"/>
 <path d="m305.64 220.55c55.777 98.3 48.996 76.669 55.777 98.3s2.7124 49.525 2.7124 49.525" fill="none" stroke="#9c9ea1" stroke-width=".67741"/>
 <path d="m353.24 214.91c55.778 98.301 48.997 76.669 55.778 98.301s2.7124 49.525 2.7124 49.525" fill="none" stroke="#9c9ea1" stroke-width=".67741"/>
 <path d="m397.21 210.1c17.631 35.449 21.286 49.92 21.286 49.92" fill="none" stroke="#9c9ea1" stroke-width=".67741"/>
 <path d="m201.36 256.75 220.27-26.09" fill="none" stroke="#9c9ea1" stroke-width=".67741"/>
 <path d="m208.16 281.48 210.34-21.457" fill="none" stroke="#9c9ea1" stroke-width=".67741"/>
 <path d="m221.85 308.71 198.42-21.204" fill="none" stroke="#9c9ea1" stroke-width=".67741"/>
 <path d="m238.2 329.94 173.43-5.1924" fill="none" stroke="#9c9ea1" stroke-width=".67741"/>
 <path d="m238.2 350.41 180.72 2.0592" fill="none" stroke="#9c9ea1" stroke-width=".67741"/>
 <path d="m438.62 422.79" fill="none" stroke="#231f20" stroke-width="1.3548"/>
</svg>
