<?xml version="1.0" encoding="UTF-8" standalone="no"?>
<!DOCTYPE svg PUBLIC "-//W3C//DTD SVG 1.1//EN" "http://www.w3.org/Graphics/SVG/1.1/DTD/svg11.dtd">
<svg version="1.1" xmlns="http://www.w3.org/2000/svg" xmlns:xlink="http://www.w3.org/1999/xlink" preserveAspectRatio="xMidYMid meet" viewBox="0 0 640 640" width="640" height="640"><defs><path d="M640 320C640 496.61 496.61 640 320 640C143.38 640 0 496.61 0 320C0 143.39 143.38 0 320 0C496.61 0 640 143.39 640 320Z" id="b15QU7HHBW"></path><path d="M540 320C540 441.42 441.42 540 320 540C198.58 540 100 441.42 100 320C100 198.58 198.58 100 320 100C441.42 100 540 198.58 540 320Z" id="a2g8hZlxJJ"></path><path d="M320 320L0 0L320 0L320 320Z" id="dJs2lsu8d"></path><path d="M320 330L640 0L320 0L320 330Z" id="begNfFzyJ"></path><path d="M320 320L640 640L320 640L320 320Z" id="b1tUsPU3f0"></path><path d="M0 640L320 320L320 640L0 640Z" id="e2Jf8zLr0M"></path></defs><g><g><g><use xlink:href="#b15QU7HHBW" opacity="1" fill="#2050b482" fill-opacity="1"></use></g><g><use xlink:href="#a2g8hZlxJJ" opacity="1" fill="#ffffff" fill-opacity="1"></use></g><g><use xlink:href="#dJs2lsu8d" opacity="1" fill="#ffffff" fill-opacity="1"></use></g><g><use xlink:href="#begNfFzyJ" opacity="1" fill="#ffffff" fill-opacity="1"></use></g><g><use xlink:href="#b1tUsPU3f0" opacity="1" fill="#ffffff" fill-opacity="1"></use></g><g><use xlink:href="#e2Jf8zLr0M" opacity="1" fill="#ffffff" fill-opacity="1"></use></g></g></g></svg>